<?xml version="1.0" encoding="UTF-8" standalone="no"?>
<!-- Created with Inkscape (http://www.inkscape.org/) -->
<svg xmlns:rdf="http://www.w3.org/1999/02/22-rdf-syntax-ns#" xmlns="http://www.w3.org/2000/svg" xmlns:cc="http://creativecommons.org/ns#" xmlns:xlink="http://www.w3.org/1999/xlink" xmlns:dc="http://purl.org/dc/elements/1.1/" xmlns:svg="http://www.w3.org/2000/svg" xmlns:inkscape="http://www.inkscape.org/namespaces/inkscape" xmlns:sodipodi="http://sodipodi.sourceforge.net/DTD/sodipodi-0.dtd" xmlns:ns1="http://sozi.baierouge.fr" id="svg59948" viewBox="0 0 800 600" version="1.1" inkscape:version="0.91 r13725">
  <defs id="defs59950">
    <linearGradient id="linearGradient63927">
      <stop id="stop63929" style="stop-color:#e6e6e6" offset="0"/>
      <stop id="stop63931" style="stop-color:#e6e6e6;stop-opacity:0" offset="1"/>
    </linearGradient>
    <linearGradient id="linearGradient64073">
      <stop id="stop64075" style="stop-color:#e6e6e6;stop-opacity:0.66" offset="0"/>
      <stop id="stop64077" style="stop-color:#e6e6e6;stop-opacity:0" offset="1"/>
    </linearGradient>
    <filter id="filter63881" color-interpolation-filters="sRGB">
      <feGaussianBlur id="feGaussianBlur63883" stdDeviation="7.4804688"/>
    </filter>
    <linearGradient id="linearGradient63887">
      <stop id="stop63889" style="stop-color:#585757" offset="0"/>
      <stop id="stop63891" style="stop-color:#ffffff" offset="1"/>
    </linearGradient>
    <filter id="filter63947" color-interpolation-filters="sRGB">
      <feGaussianBlur id="feGaussianBlur63949" stdDeviation="3.6503895"/>
    </filter>
    <linearGradient id="linearGradient63334">
      <stop id="stop63336" style="stop-color:#00ffff" offset="0"/>
      <stop id="stop63338" style="stop-color:#00ffff;stop-opacity:0" offset="1"/>
    </linearGradient>
    <radialGradient id="radialGradient4165" gradientUnits="userSpaceOnUse" cy="565.22" cx="357.1" gradientTransform="matrix(.38721 .086047 -.087773 .39498 170.95 14.412)" r="149.6">
      <stop id="stop64409" style="stop-color:#008000" offset="0"/>
      <stop id="stop64411" style="stop-color:#008000;stop-opacity:0" offset="1"/>
    </radialGradient>
    <linearGradient id="linearGradient4277" y2="661.03" xlink:href="#linearGradient63927" gradientUnits="userSpaceOnUse" x2="370.65" gradientTransform="matrix(.38344 0 0 .38024 422.52 48.311)" y1="280.84" x1="407.24"/>
    <linearGradient id="linearGradient4283" y2="509.91" xlink:href="#linearGradient63927" gradientUnits="userSpaceOnUse" x2="520.18" gradientTransform="matrix(.40461 0 0 .40461 415.2 32.059)" y1="667.4" x1="138.4"/>
    <radialGradient id="radialGradient4293" xlink:href="#linearGradient63887" gradientUnits="userSpaceOnUse" cy="492.16" cx="404.35" gradientTransform="matrix(.72022 .63561 -.27976 0.317 412.76 -145.41)" r="155.23"/>
    <radialGradient id="radialGradient4298" xlink:href="#linearGradient63334" gradientUnits="userSpaceOnUse" cy="636.63" cx="22.946" gradientTransform="matrix(.038345 .32908 -.49861 .058099 873.75 166.64)" r="149.6"/>
    <radialGradient id="radialGradient4301" xlink:href="#linearGradient63334" gradientUnits="userSpaceOnUse" cy="675.34" cx="379.62" gradientTransform="matrix(.042591 .32856 -.40126 .052015 812.01 170.57)" r="149.6"/>
    <linearGradient id="linearGradient4309" y2="509.91" xlink:href="#linearGradient63927" gradientUnits="userSpaceOnUse" x2="520.18" gradientTransform="matrix(.40461 0 0 .40461 256.81 31.294)" y1="667.4" x1="138.4"/>
    <radialGradient id="radialGradient4316" xlink:href="#linearGradient63887" gradientUnits="userSpaceOnUse" cy="492.16" cx="404.35" gradientTransform="matrix(.72022 .63561 -.27976 0.317 254.37 -146.17)" r="155.23"/>
    <linearGradient id="linearGradient4340" y2="509.91" xlink:href="#linearGradient63927" gradientUnits="userSpaceOnUse" x2="520.18" gradientTransform="matrix(.40461 0 0 .40461 262.16 215.67)" y1="667.4" x1="138.4"/>
    <radialGradient id="radialGradient4347" xlink:href="#linearGradient63887" gradientUnits="userSpaceOnUse" cy="492.16" cx="404.35" gradientTransform="matrix(.72022 .63561 -.27976 0.317 259.72 38.205)" r="155.23"/>
    <linearGradient id="linearGradient4374" y2="509.91" xlink:href="#linearGradient63927" gradientUnits="userSpaceOnUse" x2="520.18" gradientTransform="matrix(.40461 0 0 .40461 -58.322 -150.7)" y1="667.4" x1="138.4"/>
    <radialGradient id="radialGradient4381" xlink:href="#linearGradient63887" gradientUnits="userSpaceOnUse" cy="492.16" cx="404.35" gradientTransform="matrix(.72022 .63561 -.27976 0.317 -60.757 -328.17)" r="155.23"/>
    <linearGradient id="linearGradient4407" y2="509.91" xlink:href="#linearGradient63927" gradientUnits="userSpaceOnUse" x2="520.18" gradientTransform="matrix(.40461 0 0 .40461 96.768 31.821)" y1="667.4" x1="138.4"/>
    <radialGradient id="radialGradient4414" xlink:href="#linearGradient63887" gradientUnits="userSpaceOnUse" cy="492.16" cx="404.35" gradientTransform="matrix(.72022 .63561 -.27976 0.317 94.333 -145.64)" r="155.23"/>
    <linearGradient id="linearGradient4728" y2="509.91" xlink:href="#linearGradient63927" gradientUnits="userSpaceOnUse" x2="520.18" gradientTransform="matrix(.40461 0 0 .40461 573.11 216.61)" y1="667.4" x1="138.4"/>
    <radialGradient id="radialGradient4735" xlink:href="#linearGradient63887" gradientUnits="userSpaceOnUse" cy="492.16" cx="404.35" gradientTransform="matrix(.72022 .63561 -.27976 0.317 570.67 39.146)" r="155.23"/>
    <linearGradient id="linearGradient4759" y2="509.91" xlink:href="#linearGradient63927" gradientUnits="userSpaceOnUse" x2="520.18" gradientTransform="matrix(.40461 0 0 .40461 97.348 -149.6)" y1="667.4" x1="138.4"/>
    <radialGradient id="radialGradient4766" xlink:href="#linearGradient63887" gradientUnits="userSpaceOnUse" cy="492.16" cx="404.35" gradientTransform="matrix(.72022 .63561 -.27976 0.317 94.912 -327.07)" r="155.23"/>
    <linearGradient id="linearGradient4790" y2="509.91" xlink:href="#linearGradient63927" gradientUnits="userSpaceOnUse" x2="520.18" gradientTransform="matrix(.40461 0 0 .40461 -56.677 216.16)" y1="667.4" x1="138.4"/>
    <radialGradient id="radialGradient4797" xlink:href="#linearGradient63887" gradientUnits="userSpaceOnUse" cy="492.16" cx="404.35" gradientTransform="matrix(.72022 .63561 -.27976 0.317 -59.112 38.692)" r="155.23"/>
    <linearGradient id="linearGradient4821" y2="509.91" xlink:href="#linearGradient63927" gradientUnits="userSpaceOnUse" x2="520.18" gradientTransform="matrix(.40461 0 0 .40461 256.76 -150.87)" y1="667.4" x1="138.4"/>
    <radialGradient id="radialGradient4828" xlink:href="#linearGradient63887" gradientUnits="userSpaceOnUse" cy="492.16" cx="404.35" gradientTransform="matrix(.72022 .63561 -.27976 0.317 254.32 -328.34)" r="155.23"/>
    <linearGradient id="linearGradient4852" y2="509.91" xlink:href="#linearGradient63927" gradientUnits="userSpaceOnUse" x2="520.18" gradientTransform="matrix(.40461 0 0 .40461 567.21 31.453)" y1="667.4" x1="138.4"/>
    <radialGradient id="radialGradient4859" xlink:href="#linearGradient63887" gradientUnits="userSpaceOnUse" cy="492.16" cx="404.35" gradientTransform="matrix(.72022 .63561 -.27976 0.317 564.78 -146.01)" r="155.23"/>
    <linearGradient id="linearGradient4883" y2="509.91" xlink:href="#linearGradient63927" gradientUnits="userSpaceOnUse" x2="520.18" gradientTransform="matrix(.40461 0 0 .40461 -61.209 31.27)" y1="667.4" x1="138.4"/>
    <radialGradient id="radialGradient4890" xlink:href="#linearGradient63887" gradientUnits="userSpaceOnUse" cy="492.16" cx="404.35" gradientTransform="matrix(.72022 .63561 -.27976 0.317 -63.644 -146.19)" r="155.23"/>
    <linearGradient id="linearGradient4914" y2="509.91" xlink:href="#linearGradient63927" gradientUnits="userSpaceOnUse" x2="520.18" gradientTransform="matrix(.40461 0 0 .40461 415.25 215.96)" y1="667.4" x1="138.4"/>
    <radialGradient id="radialGradient4921" xlink:href="#linearGradient63887" gradientUnits="userSpaceOnUse" cy="492.16" cx="404.35" gradientTransform="matrix(.72022 .63561 -.27976 0.317 412.82 38.495)" r="155.23"/>
    <linearGradient id="linearGradient4945" y2="509.91" xlink:href="#linearGradient63927" gradientUnits="userSpaceOnUse" x2="520.18" gradientTransform="matrix(.40461 0 0 .40461 410.6 -149.62)" y1="667.4" x1="138.4"/>
    <radialGradient id="radialGradient4952" xlink:href="#linearGradient63887" gradientUnits="userSpaceOnUse" cy="492.16" cx="404.35" gradientTransform="matrix(.72022 .63561 -.27976 0.317 408.17 -327.09)" r="155.23"/>
    <linearGradient id="linearGradient4976" y2="509.91" xlink:href="#linearGradient63927" gradientUnits="userSpaceOnUse" x2="520.18" gradientTransform="matrix(.40461 0 0 .40461 566.7 -149.49)" y1="667.4" x1="138.4"/>
    <radialGradient id="radialGradient4983" xlink:href="#linearGradient63887" gradientUnits="userSpaceOnUse" cy="492.16" cx="404.35" gradientTransform="matrix(.72022 .63561 -.27976 0.317 564.26 -326.96)" r="155.23"/>
    <linearGradient id="linearGradient5007" y2="509.91" xlink:href="#linearGradient63927" gradientUnits="userSpaceOnUse" x2="520.18" gradientTransform="matrix(.40461 0 0 .40461 100.29 216.67)" y1="667.4" x1="138.4"/>
    <radialGradient id="radialGradient5014" xlink:href="#linearGradient63887" gradientUnits="userSpaceOnUse" cy="492.16" cx="404.35" gradientTransform="matrix(.72022 .63561 -.27976 0.317 97.857 39.21)" r="155.23"/>
    <radialGradient id="radialGradient5038" xlink:href="#linearGradient64073" gradientUnits="userSpaceOnUse" cy="534.82" cx="262.61" gradientTransform="matrix(-.016416 .27906 -.37716 -.022188 446.97 282.92)" r="149.6"/>
    <radialGradient id="radialGradient5041" xlink:href="#linearGradient64073" gradientUnits="userSpaceOnUse" cy="531.22" cx="227.72" gradientTransform="matrix(-.0013414 .21455 -.30032 -.0018777 402.72 286.82)" r="149.6"/>
    <linearGradient id="linearGradient5049" y2="661.03" xlink:href="#linearGradient63927" gradientUnits="userSpaceOnUse" x2="370.65" gradientTransform="matrix(.33503 0 0 .36074 123.5 57.837)" y1="280.84" x1="407.24"/>
    <radialGradient id="radialGradient5059" xlink:href="#linearGradient64073" gradientUnits="userSpaceOnUse" cy="534.82" cx="262.61" gradientTransform="matrix(-.016416 .27906 -.37716 -.022188 291.23 99.112)" r="149.6"/>
    <radialGradient id="radialGradient5062" xlink:href="#linearGradient64073" gradientUnits="userSpaceOnUse" cy="531.22" cx="227.72" gradientTransform="matrix(-.0013414 .21455 -.30032 -.0018777 246.98 103.01)" r="149.6"/>
    <linearGradient id="linearGradient5070" y2="661.03" xlink:href="#linearGradient63927" gradientUnits="userSpaceOnUse" x2="370.65" gradientTransform="matrix(.33503 0 0 .36074 -32.231 -125.97)" y1="280.84" x1="407.24"/>
    <radialGradient id="radialGradient5096" xlink:href="#linearGradient64073" gradientUnits="userSpaceOnUse" cy="534.82" cx="262.61" gradientTransform="matrix(-.016416 .27906 -.37716 -.022188 605.08 281.75)" r="149.6"/>
    <radialGradient id="radialGradient5099" xlink:href="#linearGradient64073" gradientUnits="userSpaceOnUse" cy="531.22" cx="227.72" gradientTransform="matrix(-.0013414 .21455 -.30032 -.0018777 560.82 285.65)" r="149.6"/>
    <linearGradient id="linearGradient5107" y2="661.03" xlink:href="#linearGradient63927" gradientUnits="userSpaceOnUse" x2="370.65" gradientTransform="matrix(.33503 0 0 .36074 281.61 56.667)" y1="280.84" x1="407.24"/>
    <radialGradient id="radialGradient5117" xlink:href="#linearGradient64073" gradientUnits="userSpaceOnUse" cy="534.82" cx="262.61" gradientTransform="matrix(-.016416 .27906 -.37716 -.022188 610.43 464.84)" r="149.6"/>
    <radialGradient id="radialGradient5120" xlink:href="#linearGradient64073" gradientUnits="userSpaceOnUse" cy="531.22" cx="227.72" gradientTransform="matrix(-.0013414 .21455 -.30032 -.0018777 566.17 468.74)" r="149.6"/>
    <linearGradient id="linearGradient5128" y2="661.03" xlink:href="#linearGradient63927" gradientUnits="userSpaceOnUse" x2="370.65" gradientTransform="matrix(.33503 0 0 .36074 286.96 239.76)" y1="280.84" x1="407.24"/>
    <radialGradient id="radialGradient5138" xlink:href="#linearGradient64073" gradientUnits="userSpaceOnUse" cy="534.82" cx="262.61" gradientTransform="matrix(-.016416 .27906 -.37716 -.022188 450.49 466.49)" r="149.6"/>
    <radialGradient id="radialGradient5141" xlink:href="#linearGradient64073" gradientUnits="userSpaceOnUse" cy="531.22" cx="227.72" gradientTransform="matrix(-.0013414 .21455 -.30032 -.0018777 406.24 470.39)" r="149.6"/>
    <linearGradient id="linearGradient5149" y2="661.03" xlink:href="#linearGradient63927" gradientUnits="userSpaceOnUse" x2="370.65" gradientTransform="matrix(.33503 0 0 .36074 127.03 241.4)" y1="280.84" x1="407.24"/>
    <radialGradient id="radialGradient5159" xlink:href="#linearGradient64073" gradientUnits="userSpaceOnUse" cy="534.82" cx="262.61" gradientTransform="matrix(-.016416 .27906 -.37716 -.022188 916.9 100.32)" r="149.6"/>
    <radialGradient id="radialGradient5162" xlink:href="#linearGradient64073" gradientUnits="userSpaceOnUse" cy="531.22" cx="227.72" gradientTransform="matrix(-.0013414 .21455 -.30032 -.0018777 872.64 104.22)" r="149.6"/>
    <linearGradient id="linearGradient5170" y2="661.03" xlink:href="#linearGradient63927" gradientUnits="userSpaceOnUse" x2="370.65" gradientTransform="matrix(.33503 0 0 .36074 593.43 -124.76)" y1="280.84" x1="407.24"/>
    <radialGradient id="radialGradient5180" xlink:href="#linearGradient64073" gradientUnits="userSpaceOnUse" cy="534.82" cx="262.61" gradientTransform="matrix(-.016416 .27906 -.37716 -.022188 760.8 100.19)" r="149.6"/>
    <radialGradient id="radialGradient5183" xlink:href="#linearGradient64073" gradientUnits="userSpaceOnUse" cy="531.22" cx="227.72" gradientTransform="matrix(-.0013414 .21455 -.30032 -.0018777 716.55 104.09)" r="149.6"/>
    <linearGradient id="linearGradient5191" y2="661.03" xlink:href="#linearGradient63927" gradientUnits="userSpaceOnUse" x2="370.65" gradientTransform="matrix(.33503 0 0 .36074 437.34 -124.89)" y1="280.84" x1="407.24"/>
    <radialGradient id="radialGradient5201" xlink:href="#linearGradient64073" gradientUnits="userSpaceOnUse" cy="534.82" cx="262.61" gradientTransform="matrix(-.016416 .27906 -.37716 -.022188 765.45 465.77)" r="149.6"/>
    <radialGradient id="radialGradient5204" xlink:href="#linearGradient64073" gradientUnits="userSpaceOnUse" cy="531.22" cx="227.72" gradientTransform="matrix(-.0013414 .21455 -.30032 -.0018777 721.2 469.68)" r="149.6"/>
    <linearGradient id="linearGradient5212" y2="661.03" xlink:href="#linearGradient63927" gradientUnits="userSpaceOnUse" x2="370.65" gradientTransform="matrix(.33503 0 0 .36074 441.99 240.69)" y1="280.84" x1="407.24"/>
    <radialGradient id="radialGradient5222" xlink:href="#linearGradient64073" gradientUnits="userSpaceOnUse" cy="534.82" cx="262.61" gradientTransform="matrix(-.016416 .27906 -.37716 -.022188 288.99 281.08)" r="149.6"/>
    <radialGradient id="radialGradient5225" xlink:href="#linearGradient64073" gradientUnits="userSpaceOnUse" cy="531.22" cx="227.72" gradientTransform="matrix(-.0013414 .21455 -.30032 -.0018777 244.74 284.99)" r="149.6"/>
    <linearGradient id="linearGradient5233" y2="661.03" xlink:href="#linearGradient63927" gradientUnits="userSpaceOnUse" x2="370.65" gradientTransform="matrix(.33503 0 0 .36074 -34.474 55.999)" y1="280.84" x1="407.24"/>
    <radialGradient id="radialGradient5243" xlink:href="#linearGradient64073" gradientUnits="userSpaceOnUse" cy="534.82" cx="262.61" gradientTransform="matrix(-.016416 .27906 -.37716 -.022188 917.41 281.27)" r="149.6"/>
    <radialGradient id="radialGradient5246" xlink:href="#linearGradient64073" gradientUnits="userSpaceOnUse" cy="531.22" cx="227.72" gradientTransform="matrix(-.0013414 .21455 -.30032 -.0018777 873.16 285.17)" r="149.6"/>
    <linearGradient id="linearGradient5254" y2="661.03" xlink:href="#linearGradient63927" gradientUnits="userSpaceOnUse" x2="370.65" gradientTransform="matrix(.33503 0 0 .36074 593.95 56.183)" y1="280.84" x1="407.24"/>
    <radialGradient id="radialGradient5264" xlink:href="#linearGradient64073" gradientUnits="userSpaceOnUse" cy="534.82" cx="262.61" gradientTransform="matrix(-.016416 .27906 -.37716 -.022188 606.96 98.941)" r="149.6"/>
    <radialGradient id="radialGradient5267" xlink:href="#linearGradient64073" gradientUnits="userSpaceOnUse" cy="531.22" cx="227.72" gradientTransform="matrix(-.0013414 .21455 -.30032 -.0018777 562.71 102.84)" r="149.6"/>
    <linearGradient id="linearGradient5275" y2="661.03" xlink:href="#linearGradient63927" gradientUnits="userSpaceOnUse" x2="370.65" gradientTransform="matrix(.33503 0 0 .36074 283.49 -126.14)" y1="280.84" x1="407.24"/>
    <radialGradient id="radialGradient5285" xlink:href="#linearGradient64073" gradientUnits="userSpaceOnUse" cy="534.82" cx="262.61" gradientTransform="matrix(-.016416 .27906 -.37716 -.022188 293.52 465.97)" r="149.6"/>
    <radialGradient id="radialGradient5288" xlink:href="#linearGradient64073" gradientUnits="userSpaceOnUse" cy="531.22" cx="227.72" gradientTransform="matrix(-.0013414 .21455 -.30032 -.0018777 249.27 469.87)" r="149.6"/>
    <linearGradient id="linearGradient5296" y2="661.03" xlink:href="#linearGradient63927" gradientUnits="userSpaceOnUse" x2="370.65" gradientTransform="matrix(.33503 0 0 .36074 -29.942 240.89)" y1="280.84" x1="407.24"/>
    <radialGradient id="radialGradient5306" xlink:href="#linearGradient64073" gradientUnits="userSpaceOnUse" cy="534.82" cx="262.61" gradientTransform="matrix(-.016416 .27906 -.37716 -.022188 447.55 100.21)" r="149.6"/>
    <radialGradient id="radialGradient5309" xlink:href="#linearGradient64073" gradientUnits="userSpaceOnUse" cy="531.22" cx="227.72" gradientTransform="matrix(-.0013414 .21455 -.30032 -.0018777 403.3 104.11)" r="149.6"/>
    <linearGradient id="linearGradient5317" y2="661.03" xlink:href="#linearGradient63927" gradientUnits="userSpaceOnUse" x2="370.65" gradientTransform="matrix(.33503 0 0 .36074 124.08 -124.87)" y1="280.84" x1="407.24"/>
    <radialGradient id="radialGradient5327" xlink:href="#linearGradient64073" gradientUnits="userSpaceOnUse" cy="534.82" cx="262.61" gradientTransform="matrix(-.016416 .27906 -.37716 -.022188 923.31 466.43)" r="149.6"/>
    <radialGradient id="radialGradient5330" xlink:href="#linearGradient64073" gradientUnits="userSpaceOnUse" cy="531.22" cx="227.72" gradientTransform="matrix(-.0013414 .21455 -.30032 -.0018777 879.06 470.33)" r="149.6"/>
    <linearGradient id="linearGradient5338" y2="661.03" xlink:href="#linearGradient63927" gradientUnits="userSpaceOnUse" x2="370.65" gradientTransform="matrix(.33503 0 0 .36074 599.84 241.34)" y1="280.84" x1="407.24"/>
  </defs>
  <g id="g5473">
    <path id="path63302" style="fill:#1e64c6" d="m619.09 288.1c0 33.431-27.101 60.532-60.532 60.532s-60.532-27.101-60.532-60.532 27.101-60.532 60.532-60.532 60.532 27.101 60.532 60.532z"/>
    <path id="path63332" style="fill:url(#radialGradient4301)" d="m619.09 288.1c0 33.431-27.101 60.532-60.532 60.532s-60.532-27.101-60.532-60.532 27.101-60.532 60.532-60.532 60.532 27.101 60.532 60.532z"/>
    <path id="path63342" style="fill:url(#radialGradient4298)" d="m618.18 288.1c0 33.431-27.101 60.532-60.532 60.532s-60.532-27.101-60.532-60.532 27.101-60.532 60.532-60.532 60.532 27.101 60.532 60.532z"/>
    <path id="path63355" style="filter:url(#filter63881);fill:#000000" d="m-162.66-277.19c-82.624 0-149.62 66.97-149.62 149.59 0 82.624 67.001 149.62 149.62 149.62 82.624 0 149.59-67.001 149.59-149.62 0-82.624-66.97-149.59-149.59-149.59zm-1.125 27c67.093 0 121.47 54.376 121.47 121.47 0 67.093-54.376 121.5-121.47 121.5-67.093 0-121.5-54.407-121.5-121.5s54.407-121.47 121.5-121.47z" transform="matrix(.40461 0 0 .40461 624.38 339.72)"/>
    <path id="path63348" style="fill:#585757" d="m559.02 225.74c-34.687 0-62.816 28.116-62.816 62.803s28.129 62.816 62.816 62.816 62.803-28.129 62.803-62.816-28.116-62.803-62.803-62.803zm-0.4723 11.335c28.167 0 50.995 22.828 50.995 50.995s-22.828 51.009-50.995 51.009-51.009-22.841-51.009-51.009c0-28.167 22.841-50.995 51.009-50.995z"/>
    <path id="path63885" style="fill:url(#radialGradient4293)" d="m559.02 225.74c-34.687 0-62.816 28.116-62.816 62.803s28.129 62.816 62.816 62.816 62.803-28.129 62.803-62.816-28.116-62.803-62.803-62.803zm-0.4723 11.335c28.167 0 50.995 22.828 50.995 50.995s-22.828 51.009-50.995 51.009-51.009-22.841-51.009-51.009c0-28.167 22.841-50.995 51.009-50.995z"/>
    <path id="path63895" style="fill:#333333" d="m559.31 221.19c-36.833 0-66.701 29.855-66.701 66.687 0 36.833 29.868 66.701 66.701 66.701s66.687-29.868 66.687-66.701-29.855-66.687-66.687-66.687zm-0.50151 12.036c29.909 0 54.149 24.24 54.149 54.149s-24.24 54.163-54.149 54.163-54.163-24.254-54.163-54.163 24.254-54.149 54.163-54.149z"/>
    <path id="path63922" style="fill:url(#linearGradient4277)" d="m559.16 241.59c-16.341 0-30.711 8.6134-38.967 21.614 7.0893 16.814 23.505 28.589 42.621 28.589 16.34 0 30.699-8.602 38.955-21.602-7.0877-16.817-23.49-28.601-42.609-28.601z"/>
    <path id="path63937" style="filter:url(#filter63947);stroke:#000000;stroke-width:2.743;fill:none" d="m478.82 641.95c0 65.892-55.552 119.31-124.08 119.31-68.527 0-124.08-53.416-124.08-119.31 0-65.892 55.552-119.31 124.08-119.31 68.527 0 124.08 53.416 124.08 119.31z" transform="matrix(.40461 0 0 .43159 415.2 11.525)"/>
    <path id="path63951" style="filter:url(#filter63947);stroke:#000000;stroke-width:2.743;fill:none" d="m478.82 641.95c0 65.892-55.552 119.31-124.08 119.31-68.527 0-124.08-53.416-124.08-119.31 0-65.892 55.552-119.31 124.08-119.31 68.527 0 124.08 53.416 124.08 119.31z" transform="matrix(.40461 0 0 .43159 415.2 11.525)"/>
    <path id="path63953" style="filter:url(#filter63947);stroke:#000000;stroke-width:2.743;fill:none" d="m478.82 641.95c0 65.892-55.552 119.31-124.08 119.31-68.527 0-124.08-53.416-124.08-119.31 0-65.892 55.552-119.31 124.08-119.31 68.527 0 124.08 53.416 124.08 119.31z" transform="matrix(.40461 0 0 .43159 415.2 11.525)"/>
    <path id="path63907" style="fill:url(#linearGradient4283)" d="m559.31 221.19c-36.833 0-66.701 29.855-66.701 66.687 0 36.833 29.868 66.701 66.701 66.701s66.687-29.868 66.687-66.701-29.855-66.687-66.687-66.687zm-0.50151 12.036c29.909 0 54.149 24.24 54.149 54.149s-24.24 54.163-54.149 54.163-54.163-24.254-54.163-54.163 24.254-54.149 54.163-54.149z"/>
    <path id="path63997" style="fill:url(#linearGradient4277)" d="m559.16 241.59c-16.341 0-30.711 8.6134-38.967 21.614 7.0893 16.814 23.505 28.589 42.621 28.589 16.34 0 30.699-8.602 38.955-21.602-7.0877-16.817-23.49-28.601-42.609-28.601z"/>
    <path id="path63999" style="fill:url(#linearGradient4277)" d="m559.16 241.59c-16.341 0-30.711 8.6134-38.967 21.614 7.0893 16.814 23.505 28.589 42.621 28.589 16.34 0 30.699-8.602 38.955-21.602-7.0877-16.817-23.49-28.601-42.609-28.601z"/>
  </g>
  <g id="g5457">
    <path id="path63955" style="fill:#ff0000" d="m462.63 293.12c0 33.431-27.101 60.532-60.532 60.532s-60.532-27.101-60.532-60.532 27.101-60.532 60.532-60.532 60.532 27.101 60.532 60.532z"/>
    <path id="path64185" style="fill:url(#linearGradient5107)" d="m401 240.04c-14.278 0-26.834 8.1717-34.047 20.506 6.1944 15.951 20.538 27.123 37.241 27.123 14.278 0 26.824-8.1609 34.037-20.494-6.193-15.955-20.525-27.134-37.23-27.134z"/>
    <path id="path64187" style="fill:url(#linearGradient5107)" d="m401 240.04c-14.278 0-26.834 8.1717-34.047 20.506 6.1944 15.951 20.538 27.123 37.241 27.123 14.278 0 26.824-8.1609 34.037-20.494-6.193-15.955-20.525-27.134-37.23-27.134z"/>
    <path id="path64191" style="fill-opacity:0" d="m465.85 316.94c0 33.431-27.101 60.532-60.532 60.532s-60.532-27.101-60.532-60.532 27.101-60.532 60.532-60.532 60.532 27.101 60.532 60.532z"/>
    <path id="path64193" style="fill:url(#radialGradient5099)" d="m461.08 292.48c0 33.431-27.101 60.532-60.532 60.532s-60.532-27.101-60.532-60.532 27.101-60.532 60.532-60.532 60.532 27.101 60.532 60.532z"/>
    <path id="path64195" style="fill:url(#radialGradient5096)" d="m461.08 292.48c0 33.431-27.101 60.532-60.532 60.532s-60.532-27.101-60.532-60.532 27.101-60.532 60.532-60.532 60.532 27.101 60.532 60.532z"/>
    <path id="path63961" style="filter:url(#filter63881);fill:#000000" d="m263.66 249.35c-82.624 0-149.62 66.97-149.62 149.59 0 82.624 67.001 149.62 149.62 149.62 82.624 0 149.59-67.001 149.59-149.62 0-82.624-66.97-149.59-149.59-149.59zm-1.125 27c67.093 0 121.47 54.376 121.47 121.47 0 67.093-54.376 121.5-121.47 121.5-67.093 0-121.5-54.407-121.5-121.5s54.407-121.47 121.5-121.47z" transform="matrix(.40461 0 0 .40461 293.49 125.91)"/>
    <path id="path63963" style="fill:#585757" d="m400.63 224.98c-34.687 0-62.816 28.116-62.816 62.803s28.129 62.816 62.816 62.816 62.803-28.129 62.803-62.816-28.116-62.803-62.803-62.803zm-0.4723 11.335c28.167 0 50.995 22.828 50.995 50.995s-22.828 51.009-50.995 51.009-51.009-22.841-51.009-51.009c0-28.167 22.841-50.995 51.009-50.995z"/>
    <path id="path63965" style="fill:url(#radialGradient4316)" d="m400.63 224.98c-34.687 0-62.816 28.116-62.816 62.803s28.129 62.816 62.816 62.816 62.803-28.129 62.803-62.816-28.116-62.803-62.803-62.803zm-0.4723 11.335c28.167 0 50.995 22.828 50.995 50.995s-22.828 51.009-50.995 51.009-51.009-22.841-51.009-51.009c0-28.167 22.841-50.995 51.009-50.995z"/>
    <path id="path63967" style="fill:#333333" d="m400.92 220.43c-36.833 0-66.701 29.855-66.701 66.687 0 36.833 29.868 66.701 66.701 66.701s66.687-29.868 66.687-66.701-29.855-66.687-66.687-66.687zm-0.50151 12.036c29.909 0 54.149 24.24 54.149 54.149s-24.24 54.163-54.149 54.163-54.163-24.254-54.163-54.163 24.254-54.149 54.163-54.149z"/>
    <path id="path63973" style="filter:url(#filter63947);stroke:#000000;stroke-width:2.743;fill:none" d="m478.82 641.95c0 65.892-55.552 119.31-124.08 119.31-68.527 0-124.08-53.416-124.08-119.31 0-65.892 55.552-119.31 124.08-119.31 68.527 0 124.08 53.416 124.08 119.31z" transform="matrix(.40461 0 0 .43159 256.81 10.76)"/>
    <path id="path63975" style="filter:url(#filter63947);stroke:#000000;stroke-width:2.743;fill:none" d="m478.82 641.95c0 65.892-55.552 119.31-124.08 119.31-68.527 0-124.08-53.416-124.08-119.31 0-65.892 55.552-119.31 124.08-119.31 68.527 0 124.08 53.416 124.08 119.31z" transform="matrix(.40461 0 0 .43159 256.81 10.76)"/>
    <path id="path63977" style="filter:url(#filter63947);stroke:#000000;stroke-width:2.743;fill:none" d="m478.82 641.95c0 65.892-55.552 119.31-124.08 119.31-68.527 0-124.08-53.416-124.08-119.31 0-65.892 55.552-119.31 124.08-119.31 68.527 0 124.08 53.416 124.08 119.31z" transform="matrix(.40461 0 0 .43159 256.81 10.76)"/>
    <path id="path63979" style="fill:url(#linearGradient4309)" d="m400.92 220.43c-36.833 0-66.701 29.855-66.701 66.687 0 36.833 29.868 66.701 66.701 66.701s66.687-29.868 66.687-66.701-29.855-66.687-66.687-66.687zm-0.50151 12.036c29.909 0 54.149 24.24 54.149 54.149s-24.24 54.163-54.149 54.163-54.163-24.254-54.163-54.163 24.254-54.149 54.163-54.149z"/>
  </g>
  <g id="g5538">
    <path id="path64233" style="fill:#000000" d="m467.34 474.93c0 33.431-27.101 60.532-60.532 60.532s-60.532-27.101-60.532-60.532 27.101-60.532 60.532-60.532 60.532 27.101 60.532 60.532z"/>
    <path id="path63969" style="fill:url(#linearGradient5128)" d="m406.35 423.12c-14.278 0-26.834 8.1717-34.047 20.506 6.1944 15.951 20.538 27.123 37.241 27.123 14.278 0 26.824-8.1609 34.037-20.494-6.193-15.955-20.525-27.134-37.23-27.134z"/>
    <path id="path63993" style="fill:url(#linearGradient5128)" d="m406.35 423.12c-14.278 0-26.834 8.1717-34.047 20.506 6.1944 15.951 20.538 27.123 37.241 27.123 14.278 0 26.824-8.1609 34.037-20.494-6.193-15.955-20.525-27.134-37.23-27.134z"/>
    <path id="path63957" style="fill-opacity:0" d="m471.2 500.03c0 33.431-27.101 60.532-60.532 60.532s-60.532-27.101-60.532-60.532 27.101-60.532 60.532-60.532 60.532 27.101 60.532 60.532z"/>
    <path id="path63959" style="fill:url(#radialGradient5120)" d="m466.43 475.57c0 33.431-27.101 60.532-60.532 60.532s-60.532-27.101-60.532-60.532 27.101-60.532 60.532-60.532 60.532 27.101 60.532 60.532z"/>
    <path id="path64079" style="fill:url(#radialGradient5117)" d="m466.43 475.57c0 33.431-27.101 60.532-60.532 60.532s-60.532-27.101-60.532-60.532 27.101-60.532 60.532-60.532 60.532 27.101 60.532 60.532z"/>
    <path id="path64237" style="filter:url(#filter63881);fill:#000000" d="m263.66 249.35c-82.624 0-149.62 66.97-149.62 149.59 0 82.624 67.001 149.62 149.62 149.62 82.624 0 149.59-67.001 149.59-149.62 0-82.624-66.97-149.59-149.59-149.59zm-1.125 27c67.093 0 121.47 54.376 121.47 121.47 0 67.093-54.376 121.5-121.47 121.5-67.093 0-121.5-54.407-121.5-121.5s54.407-121.47 121.5-121.47z" transform="matrix(.40461 0 0 .40461 298.84 310.29)"/>
    <path id="path64239" style="fill:#585757" d="m405.98 409.36c-34.687 0-62.816 28.116-62.816 62.803s28.129 62.816 62.816 62.816 62.803-28.129 62.803-62.816-28.116-62.803-62.803-62.803zm-0.4723 11.335c28.167 0 50.995 22.828 50.995 50.995s-22.828 51.009-50.995 51.009-51.009-22.841-51.009-51.009c0-28.167 22.841-50.995 51.009-50.995z"/>
    <path id="path64241" style="fill:url(#radialGradient4347)" d="m405.98 409.36c-34.687 0-62.816 28.116-62.816 62.803s28.129 62.816 62.816 62.816 62.803-28.129 62.803-62.816-28.116-62.803-62.803-62.803zm-0.4723 11.335c28.167 0 50.995 22.828 50.995 50.995s-22.828 51.009-50.995 51.009-51.009-22.841-51.009-51.009c0-28.167 22.841-50.995 51.009-50.995z"/>
    <path id="path64243" style="fill:#333333" d="m406.27 404.8c-36.833 0-66.701 29.855-66.701 66.687 0 36.833 29.868 66.701 66.701 66.701s66.687-29.868 66.687-66.701-29.855-66.687-66.687-66.687zm-0.50151 12.036c29.909 0 54.149 24.24 54.149 54.149s-24.24 54.163-54.149 54.163-54.163-24.254-54.163-54.163 24.254-54.149 54.163-54.149z"/>
    <path id="path64245" style="filter:url(#filter63947);stroke:#000000;stroke-width:2.743;fill:none" d="m478.82 641.95c0 65.892-55.552 119.31-124.08 119.31-68.527 0-124.08-53.416-124.08-119.31 0-65.892 55.552-119.31 124.08-119.31 68.527 0 124.08 53.416 124.08 119.31z" transform="matrix(.40461 0 0 .43159 262.16 195.14)"/>
    <path id="path64247" style="filter:url(#filter63947);stroke:#000000;stroke-width:2.743;fill:none" d="m478.82 641.95c0 65.892-55.552 119.31-124.08 119.31-68.527 0-124.08-53.416-124.08-119.31 0-65.892 55.552-119.31 124.08-119.31 68.527 0 124.08 53.416 124.08 119.31z" transform="matrix(.40461 0 0 .43159 262.16 195.14)"/>
    <path id="path64249" style="filter:url(#filter63947);stroke:#000000;stroke-width:2.743;fill:none" d="m478.82 641.95c0 65.892-55.552 119.31-124.08 119.31-68.527 0-124.08-53.416-124.08-119.31 0-65.892 55.552-119.31 124.08-119.31 68.527 0 124.08 53.416 124.08 119.31z" transform="matrix(.40461 0 0 .43159 262.16 195.14)"/>
    <path id="path64251" style="fill:url(#linearGradient4340)" d="m406.27 404.8c-36.833 0-66.701 29.855-66.701 66.687 0 36.833 29.868 66.701 66.701 66.701s66.687-29.868 66.687-66.701-29.855-66.687-66.687-66.687zm-0.50151 12.036c29.909 0 54.149 24.24 54.149 54.149s-24.24 54.163-54.149 54.163-54.163-24.254-54.163-54.163 24.254-54.149 54.163-54.149z"/>
  </g>
  <g id="g5343">
    <path id="path64446" style="fill:#0000ff" d="m146.86 111.13c0 33.431-27.101 60.532-60.532 60.532s-60.532-27.101-60.532-60.532 27.101-60.532 60.532-60.532 60.532 27.101 60.532 60.532z"/>
    <path id="path64448" style="fill:#0000ff" d="m146.86 111.13c0 33.431-27.101 60.532-60.532 60.532s-60.532-27.101-60.532-60.532 27.101-60.532 60.532-60.532 60.532 27.101 60.532 60.532z"/>
    <path id="path64458" style="fill:url(#linearGradient5070)" d="m87.155 57.395c-14.278 0-26.834 8.1717-34.047 20.506 6.1944 15.951 20.538 27.123 37.241 27.123 14.278 0 26.824-8.1609 34.037-20.494-6.2-15.955-20.53-27.135-37.235-27.135z"/>
    <path id="path64460" style="fill:url(#linearGradient5070)" d="m87.155 57.395c-14.278 0-26.834 8.1717-34.047 20.506 6.1944 15.951 20.538 27.123 37.241 27.123 14.278 0 26.824-8.1609 34.037-20.494-6.2-15.955-20.53-27.135-37.235-27.135z"/>
    <path id="path64464" style="fill-opacity:0" d="m152.01 134.3c0 33.431-27.101 60.532-60.532 60.532s-60.532-27.101-60.532-60.532 27.101-60.532 60.532-60.532 60.532 27.101 60.532 60.532z"/>
    <path id="path64466" style="fill:url(#radialGradient5062)" d="m147.24 109.84c0 33.431-27.101 60.532-60.532 60.532s-60.532-27.101-60.532-60.532 27.101-60.532 60.532-60.532 60.532 27.101 60.532 60.532z"/>
    <path id="path64468" style="fill:url(#radialGradient5059)" d="m147.24 109.84c0 33.431-27.101 60.532-60.532 60.532s-60.532-27.101-60.532-60.532 27.101-60.532 60.532-60.532 60.532 27.101 60.532 60.532z"/>
    <path id="path64594" style="filter:url(#filter63881);fill:#000000" d="m263.66 249.35c-82.624 0-149.62 66.97-149.62 149.59 0 82.624 67.001 149.62 149.62 149.62 82.624 0 149.59-67.001 149.59-149.62 0-82.624-66.97-149.59-149.59-149.59zm-1.125 27c67.093 0 121.47 54.376 121.47 121.47 0 67.093-54.376 121.5-121.47 121.5-67.093 0-121.5-54.407-121.5-121.5s54.407-121.47 121.5-121.47z" transform="matrix(.40461 0 0 .40461 -21.635 -56.087)"/>
    <path id="path64596" style="fill:#585757" d="m85.501 42.983c-34.687 0-62.816 28.116-62.816 62.803s28.129 62.816 62.816 62.816 62.803-28.129 62.803-62.816-28.116-62.803-62.803-62.803zm-0.4723 11.335c28.167 0 50.995 22.828 50.995 50.995s-22.828 51.009-50.995 51.009-51.009-22.841-51.009-51.009c0-28.167 22.841-50.995 51.009-50.995z"/>
    <path id="path64598" style="fill:url(#radialGradient4381)" d="m85.501 42.983c-34.687 0-62.816 28.116-62.816 62.803s28.129 62.816 62.816 62.816 62.803-28.129 62.803-62.816-28.116-62.803-62.803-62.803zm-0.4723 11.335c28.167 0 50.995 22.828 50.995 50.995s-22.828 51.009-50.995 51.009-51.009-22.841-51.009-51.009c0-28.167 22.841-50.995 51.009-50.995z"/>
    <path id="path64600" style="fill:#333333" d="m85.791 38.432c-36.833 0-66.701 29.855-66.701 66.687 0 36.833 29.868 66.701 66.701 66.701s66.687-29.868 66.687-66.701-29.855-66.687-66.687-66.687zm-0.50151 12.036c29.909 0 54.149 24.24 54.149 54.149s-24.24 54.163-54.149 54.163-54.163-24.254-54.163-54.163 24.254-54.149 54.163-54.149z"/>
    <path id="path64602" style="filter:url(#filter63947);stroke:#000000;stroke-width:2.743;fill:none" d="m478.82 641.95c0 65.892-55.552 119.31-124.08 119.31-68.527 0-124.08-53.416-124.08-119.31 0-65.892 55.552-119.31 124.08-119.31 68.527 0 124.08 53.416 124.08 119.31z" transform="matrix(.40461 0 0 .43159 -58.322 -171.24)"/>
    <path id="path64604" style="filter:url(#filter63947);stroke:#000000;stroke-width:2.743;fill:none" d="m478.82 641.95c0 65.892-55.552 119.31-124.08 119.31-68.527 0-124.08-53.416-124.08-119.31 0-65.892 55.552-119.31 124.08-119.31 68.527 0 124.08 53.416 124.08 119.31z" transform="matrix(.40461 0 0 .43159 -58.322 -171.24)"/>
    <path id="path64606" style="filter:url(#filter63947);stroke:#000000;stroke-width:2.743;fill:none" d="m478.82 641.95c0 65.892-55.552 119.31-124.08 119.31-68.527 0-124.08-53.416-124.08-119.31 0-65.892 55.552-119.31 124.08-119.31 68.527 0 124.08 53.416 124.08 119.31z" transform="matrix(.40461 0 0 .43159 -58.322 -171.24)"/>
    <path id="path64608" style="fill:url(#linearGradient4374)" d="m85.791 38.432c-36.833 0-66.701 29.855-66.701 66.687 0 36.833 29.868 66.701 66.701 66.701s66.687-29.868 66.687-66.701-29.855-66.687-66.687-66.687zm-0.50151 12.036c29.909 0 54.149 24.24 54.149 54.149s-24.24 54.163-54.149 54.163-54.163-24.254-54.163-54.163 24.254-54.149 54.163-54.149z"/>
  </g>
  <g id="g5440">
    <path id="path64109" style="fill:#00ff00" d="m301.31 294.3c0 33.431-27.101 60.532-60.532 60.532s-60.532-27.101-60.532-60.532 27.101-60.532 60.532-60.532 60.532 27.101 60.532 60.532z"/>
    <path id="path64405" style="fill:url(#radialGradient4165)" d="m301.31 294.3c0 33.431-27.101 60.532-60.532 60.532s-60.532-27.101-60.532-60.532 27.101-60.532 60.532-60.532 60.532 27.101 60.532 60.532z"/>
    <path id="path64694" style="fill:url(#linearGradient5049)" d="m242.89 241.21c-14.278 0-26.834 8.1717-34.047 20.506 6.1944 15.951 20.538 27.123 37.241 27.123 14.278 0 26.824-8.1609 34.037-20.494-6.193-15.955-20.525-27.134-37.23-27.134z"/>
    <path id="path64696" style="fill:url(#linearGradient5049)" d="m242.89 241.21c-14.278 0-26.834 8.1717-34.047 20.506 6.1944 15.951 20.538 27.123 37.241 27.123 14.278 0 26.824-8.1609 34.037-20.494-6.193-15.955-20.525-27.134-37.23-27.134z"/>
    <path id="path64700" style="fill-opacity:0" d="m307.74 318.11c0 33.431-27.101 60.532-60.532 60.532s-60.532-27.101-60.532-60.532 27.101-60.532 60.532-60.532 60.532 27.101 60.532 60.532z"/>
    <path id="path64702" style="fill:url(#radialGradient5041)" d="m302.97 293.65c0 33.431-27.101 60.532-60.532 60.532s-60.532-27.101-60.532-60.532 27.101-60.532 60.532-60.532 60.532 27.101 60.532 60.532z"/>
    <path id="path64704" style="fill:url(#radialGradient5038)" d="m302.97 293.65c0 33.431-27.101 60.532-60.532 60.532s-60.532-27.101-60.532-60.532 27.101-60.532 60.532-60.532 60.532 27.101 60.532 60.532z"/>
    <path id="path64716" style="filter:url(#filter63881);fill:#000000" d="m263.66 249.35c-82.624 0-149.62 66.97-149.62 149.59 0 82.624 67.001 149.62 149.62 149.62 82.624 0 149.59-67.001 149.59-149.62 0-82.624-66.97-149.59-149.59-149.59zm-1.125 27c67.093 0 121.47 54.376 121.47 121.47 0 67.093-54.376 121.5-121.47 121.5-67.093 0-121.5-54.407-121.5-121.5s54.407-121.47 121.5-121.47z" transform="matrix(.40461 0 0 .40461 133.46 126.44)"/>
    <path id="path64718" style="fill:#585757" d="m240.59 225.51c-34.687 0-62.816 28.116-62.816 62.803s28.129 62.816 62.816 62.816 62.803-28.129 62.803-62.816-28.116-62.803-62.803-62.803zm-0.4723 11.335c28.167 0 50.995 22.828 50.995 50.995s-22.828 51.009-50.995 51.009-51.009-22.841-51.009-51.009c0-28.167 22.841-50.995 51.009-50.995z"/>
    <path id="path64720" style="fill:url(#radialGradient4414)" d="m240.59 225.51c-34.687 0-62.816 28.116-62.816 62.803s28.129 62.816 62.816 62.816 62.803-28.129 62.803-62.816-28.116-62.803-62.803-62.803zm-0.4723 11.335c28.167 0 50.995 22.828 50.995 50.995s-22.828 51.009-50.995 51.009-51.009-22.841-51.009-51.009c0-28.167 22.841-50.995 51.009-50.995z"/>
    <path id="path64722" style="fill:#333333" d="m240.88 220.95c-36.833 0-66.701 29.855-66.701 66.687 0 36.833 29.868 66.701 66.701 66.701s66.687-29.868 66.687-66.701-29.855-66.687-66.687-66.687zm-0.50151 12.036c29.909 0 54.149 24.24 54.149 54.149s-24.24 54.163-54.149 54.163-54.163-24.254-54.163-54.163 24.254-54.149 54.163-54.149z"/>
    <path id="path64724" style="filter:url(#filter63947);stroke:#000000;stroke-width:2.743;fill:none" d="m478.82 641.95c0 65.892-55.552 119.31-124.08 119.31-68.527 0-124.08-53.416-124.08-119.31 0-65.892 55.552-119.31 124.08-119.31 68.527 0 124.08 53.416 124.08 119.31z" transform="matrix(.40461 0 0 .43159 96.768 11.286)"/>
    <path id="path64726" style="filter:url(#filter63947);stroke:#000000;stroke-width:2.743;fill:none" d="m478.82 641.95c0 65.892-55.552 119.31-124.08 119.31-68.527 0-124.08-53.416-124.08-119.31 0-65.892 55.552-119.31 124.08-119.31 68.527 0 124.08 53.416 124.08 119.31z" transform="matrix(.40461 0 0 .43159 96.768 11.286)"/>
    <path id="path64728" style="filter:url(#filter63947);stroke:#000000;stroke-width:2.743;fill:none" d="m478.82 641.95c0 65.892-55.552 119.31-124.08 119.31-68.527 0-124.08-53.416-124.08-119.31 0-65.892 55.552-119.31 124.08-119.31 68.527 0 124.08 53.416 124.08 119.31z" transform="matrix(.40461 0 0 .43159 96.768 11.286)"/>
    <path id="path64730" style="fill:url(#linearGradient4407)" d="m240.88 220.95c-36.833 0-66.701 29.855-66.701 66.687 0 36.833 29.868 66.701 66.701 66.701s66.687-29.868 66.687-66.701-29.855-66.687-66.687-66.687zm-0.50151 12.036c29.909 0 54.149 24.24 54.149 54.149s-24.24 54.163-54.149 54.163-54.163-24.254-54.163-54.163 24.254-54.149 54.163-54.149z"/>
  </g>
  <g id="g5521">
    <path id="path64807" style="fill:#00ff00" d="m304.83 471.42c0 33.431-27.101 60.532-60.532 60.532s-60.532-27.101-60.532-60.532 27.101-60.532 60.532-60.532 60.532 27.101 60.532 60.532z"/>
    <path id="path64809" style="fill:#d4aa00" d="m304.83 471.42c0 33.431-27.101 60.532-60.532 60.532s-60.532-27.101-60.532-60.532 27.101-60.532 60.532-60.532 60.532 27.101 60.532 60.532z"/>
    <path id="path64915" style="fill:url(#linearGradient5149)" d="m246.41 424.77c-14.278 0-26.834 8.1717-34.047 20.506 6.1944 15.951 20.538 27.123 37.241 27.123 14.278 0 26.824-8.1609 34.037-20.494-6.193-15.955-20.525-27.134-37.23-27.134z"/>
    <path id="path64917" style="fill:url(#linearGradient5149)" d="m246.41 424.77c-14.278 0-26.834 8.1717-34.047 20.506 6.1944 15.951 20.538 27.123 37.241 27.123 14.278 0 26.824-8.1609 34.037-20.494-6.193-15.955-20.525-27.134-37.23-27.134z"/>
    <path id="path64921" style="fill-opacity:0" d="m311.27 501.68c0 33.431-27.101 60.532-60.532 60.532s-60.532-27.101-60.532-60.532 27.101-60.532 60.532-60.532 60.532 27.101 60.532 60.532z"/>
    <path id="path64923" style="fill:url(#radialGradient5141)" d="m306.5 477.22c0 33.431-27.101 60.532-60.532 60.532s-60.532-27.101-60.532-60.532 27.101-60.532 60.532-60.532 60.532 27.101 60.532 60.532z"/>
    <path id="path64925" style="fill:url(#radialGradient5138)" d="m306.5 477.22c0 33.431-27.101 60.532-60.532 60.532s-60.532-27.101-60.532-60.532 27.101-60.532 60.532-60.532 60.532 27.101 60.532 60.532z"/>
    <path id="path64929" style="filter:url(#filter63881);fill:#000000" d="m263.66 249.35c-82.624 0-149.62 66.97-149.62 149.59 0 82.624 67.001 149.62 149.62 149.62 82.624 0 149.59-67.001 149.59-149.62 0-82.624-66.97-149.59-149.59-149.59zm-1.125 27c67.093 0 121.47 54.376 121.47 121.47 0 67.093-54.376 121.5-121.47 121.5-67.093 0-121.5-54.407-121.5-121.5s54.407-121.47 121.5-121.47z" transform="matrix(.40461 0 0 .40461 136.98 311.29)"/>
    <path id="path64931" style="fill:#585757" d="m244.12 410.36c-34.687 0-62.816 28.116-62.816 62.803s28.129 62.816 62.816 62.816 62.803-28.129 62.803-62.816-28.116-62.803-62.803-62.803zm-0.4723 11.335c28.167 0 50.995 22.828 50.995 50.995s-22.828 51.009-50.995 51.009-51.009-22.841-51.009-51.009c0-28.167 22.841-50.995 51.009-50.995z"/>
    <path id="path64933" style="fill:url(#radialGradient5014)" d="m244.12 410.36c-34.687 0-62.816 28.116-62.816 62.803s28.129 62.816 62.816 62.816 62.803-28.129 62.803-62.816-28.116-62.803-62.803-62.803zm-0.4723 11.335c28.167 0 50.995 22.828 50.995 50.995s-22.828 51.009-50.995 51.009-51.009-22.841-51.009-51.009c0-28.167 22.841-50.995 51.009-50.995z"/>
    <path id="path64935" style="fill:#333333" d="m244.41 405.81c-36.833 0-66.701 29.855-66.701 66.687 0 36.833 29.868 66.701 66.701 66.701s66.687-29.868 66.687-66.701-29.855-66.687-66.687-66.687zm-0.50151 12.036c29.909 0 54.149 24.24 54.149 54.149s-24.24 54.163-54.149 54.163-54.163-24.254-54.163-54.163 24.254-54.149 54.163-54.149z"/>
    <path id="path64937" style="filter:url(#filter63947);stroke:#000000;stroke-width:2.743;fill:none" d="m478.82 641.95c0 65.892-55.552 119.31-124.08 119.31-68.527 0-124.08-53.416-124.08-119.31 0-65.892 55.552-119.31 124.08-119.31 68.527 0 124.08 53.416 124.08 119.31z" transform="matrix(.40461 0 0 .43159 100.29 196.14)"/>
    <path id="path64939" style="filter:url(#filter63947);stroke:#000000;stroke-width:2.743;fill:none" d="m478.82 641.95c0 65.892-55.552 119.31-124.08 119.31-68.527 0-124.08-53.416-124.08-119.31 0-65.892 55.552-119.31 124.08-119.31 68.527 0 124.08 53.416 124.08 119.31z" transform="matrix(.40461 0 0 .43159 100.29 196.14)"/>
    <path id="path64941" style="filter:url(#filter63947);stroke:#000000;stroke-width:2.743;fill:none" d="m478.82 641.95c0 65.892-55.552 119.31-124.08 119.31-68.527 0-124.08-53.416-124.08-119.31 0-65.892 55.552-119.31 124.08-119.31 68.527 0 124.08 53.416 124.08 119.31z" transform="matrix(.40461 0 0 .43159 100.29 196.14)"/>
    <path id="path64943" style="fill:url(#linearGradient5007)" d="m244.41 405.81c-36.833 0-66.701 29.855-66.701 66.687 0 36.833 29.868 66.701 66.701 66.701s66.687-29.868 66.687-66.701-29.855-66.687-66.687-66.687zm-0.50151 12.036c29.909 0 54.149 24.24 54.149 54.149s-24.24 54.163-54.149 54.163-54.163-24.254-54.163-54.163 24.254-54.149 54.163-54.149z"/>
  </g>
  <g id="g5408">
    <path id="path65117" style="fill:#ff00ff" d="m773.17 107.83c0 33.431-27.101 60.532-60.532 60.532s-60.532-27.101-60.532-60.532 27.101-60.532 60.532-60.532 60.532 27.101 60.532 60.532z"/>
    <path id="path64997" style="fill:url(#linearGradient5170)" d="m712.82 58.603c-14.278 0-26.834 8.1717-34.047 20.506 6.1944 15.951 20.538 27.123 37.241 27.123 14.278 0 26.824-8.1609 34.037-20.494-6.193-15.955-20.525-27.134-37.23-27.134z"/>
    <path id="path64999" style="fill:url(#linearGradient5170)" d="m712.82 58.603c-14.278 0-26.834 8.1717-34.047 20.506 6.1944 15.951 20.538 27.123 37.241 27.123 14.278 0 26.824-8.1609 34.037-20.494-6.193-15.955-20.525-27.134-37.23-27.134z"/>
    <path id="path65003" style="fill-opacity:0" d="m777.67 135.51c0 33.431-27.101 60.532-60.532 60.532s-60.532-27.101-60.532-60.532 27.101-60.532 60.532-60.532 60.532 27.101 60.532 60.532z"/>
    <path id="path65005" style="fill:url(#radialGradient5162)" d="m772.9 111.05c0 33.431-27.101 60.532-60.532 60.532s-60.532-27.101-60.532-60.532 27.101-60.532 60.532-60.532 60.532 27.101 60.532 60.532z"/>
    <path id="path65007" style="fill:url(#radialGradient5159)" d="m772.9 111.05c0 33.431-27.101 60.532-60.532 60.532s-60.532-27.101-60.532-60.532 27.101-60.532 60.532-60.532 60.532 27.101 60.532 60.532z"/>
    <path id="path65011" style="filter:url(#filter63881);fill:#000000" d="m263.66 249.35c-82.624 0-149.62 66.97-149.62 149.59 0 82.624 67.001 149.62 149.62 149.62 82.624 0 149.59-67.001 149.59-149.62 0-82.624-66.97-149.59-149.59-149.59zm-1.125 27c67.093 0 121.47 54.376 121.47 121.47 0 67.093-54.376 121.5-121.47 121.5-67.093 0-121.5-54.407-121.5-121.5s54.407-121.47 121.5-121.47z" transform="matrix(.40461 0 0 .40461 603.38 -54.879)"/>
    <path id="path65013" style="fill:#585757" d="m710.52 44.191c-34.687 0-62.816 28.116-62.816 62.803s28.129 62.816 62.816 62.816 62.803-28.129 62.803-62.816-28.116-62.803-62.803-62.803zm-0.4723 11.335c28.167 0 50.995 22.828 50.995 50.995s-22.828 51.009-50.995 51.009-51.009-22.841-51.009-51.009c0-28.167 22.841-50.995 51.009-50.995z"/>
    <path id="path65015" style="fill:url(#radialGradient4983)" d="m710.52 44.191c-34.687 0-62.816 28.116-62.816 62.803s28.129 62.816 62.816 62.816 62.803-28.129 62.803-62.816-28.116-62.803-62.803-62.803zm-0.4723 11.335c28.167 0 50.995 22.828 50.995 50.995s-22.828 51.009-50.995 51.009-51.009-22.841-51.009-51.009c0-28.167 22.841-50.995 51.009-50.995z"/>
    <path id="path65017" style="fill:#333333" d="m710.81 39.64c-36.833 0-66.701 29.855-66.701 66.687 0 36.833 29.868 66.701 66.701 66.701s66.687-29.868 66.687-66.701-29.855-66.687-66.687-66.687zm-0.50151 12.036c29.909 0 54.149 24.24 54.149 54.149s-24.24 54.163-54.149 54.163-54.163-24.254-54.163-54.163 24.254-54.149 54.163-54.149z"/>
    <path id="path65019" style="filter:url(#filter63947);stroke:#000000;stroke-width:2.743;fill:none" d="m478.82 641.95c0 65.892-55.552 119.31-124.08 119.31-68.527 0-124.08-53.416-124.08-119.31 0-65.892 55.552-119.31 124.08-119.31 68.527 0 124.08 53.416 124.08 119.31z" transform="matrix(.40461 0 0 .43159 566.7 -170.03)"/>
    <path id="path65021" style="filter:url(#filter63947);stroke:#000000;stroke-width:2.743;fill:none" d="m478.82 641.95c0 65.892-55.552 119.31-124.08 119.31-68.527 0-124.08-53.416-124.08-119.31 0-65.892 55.552-119.31 124.08-119.31 68.527 0 124.08 53.416 124.08 119.31z" transform="matrix(.40461 0 0 .43159 566.7 -170.03)"/>
    <path id="path65023" style="filter:url(#filter63947);stroke:#000000;stroke-width:2.743;fill:none" d="m478.82 641.95c0 65.892-55.552 119.31-124.08 119.31-68.527 0-124.08-53.416-124.08-119.31 0-65.892 55.552-119.31 124.08-119.31 68.527 0 124.08 53.416 124.08 119.31z" transform="matrix(.40461 0 0 .43159 566.7 -170.03)"/>
    <path id="path65025" style="fill:url(#linearGradient4976)" d="m710.81 39.64c-36.833 0-66.701 29.855-66.701 66.687 0 36.833 29.868 66.701 66.701 66.701s66.687-29.868 66.687-66.701-29.855-66.687-66.687-66.687zm-0.50151 12.036c29.909 0 54.149 24.24 54.149 54.149s-24.24 54.163-54.149 54.163-54.163-24.254-54.163-54.163 24.254-54.149 54.163-54.149z"/>
  </g>
  <g id="g5392">
    <path id="path65115" style="fill:#0088aa" d="m615.14 107.7c0 33.431-27.101 60.532-60.532 60.532s-60.532-27.101-60.532-60.532 27.101-60.532 60.532-60.532 60.532 27.101 60.532 60.532z"/>
    <path id="path65170" style="fill:url(#linearGradient5191)" d="m556.72 58.476c-14.278 0-26.834 8.1717-34.047 20.506 6.1944 15.951 20.538 27.123 37.241 27.123 14.278 0 26.824-8.1609 34.037-20.494-6.19-15.956-20.52-27.135-37.23-27.135z"/>
    <path id="path65172" style="fill:url(#linearGradient5191)" d="m556.72 58.476c-14.278 0-26.834 8.1717-34.047 20.506 6.1944 15.951 20.538 27.123 37.241 27.123 14.278 0 26.824-8.1609 34.037-20.494-6.19-15.956-20.52-27.135-37.23-27.135z"/>
    <path id="path65176" style="fill-opacity:0" d="m621.58 135.38c0 33.431-27.101 60.532-60.532 60.532s-60.532-27.101-60.532-60.532 27.101-60.532 60.532-60.532 60.532 27.101 60.532 60.532z"/>
    <path id="path65178" style="fill:url(#radialGradient5183)" d="m616.81 110.92c0 33.431-27.101 60.532-60.532 60.532s-60.532-27.101-60.532-60.532 27.101-60.532 60.532-60.532 60.532 27.101 60.532 60.532z"/>
    <path id="path65180" style="fill:url(#radialGradient5180)" d="m616.81 110.92c0 33.431-27.101 60.532-60.532 60.532s-60.532-27.101-60.532-60.532 27.101-60.532 60.532-60.532 60.532 27.101 60.532 60.532z"/>
    <path id="path65184" style="filter:url(#filter63881);fill:#000000" d="m263.66 249.35c-82.624 0-149.62 66.97-149.62 149.59 0 82.624 67.001 149.62 149.62 149.62 82.624 0 149.59-67.001 149.59-149.62 0-82.624-66.97-149.59-149.59-149.59zm-1.125 27c67.093 0 121.47 54.376 121.47 121.47 0 67.093-54.376 121.5-121.47 121.5-67.093 0-121.5-54.407-121.5-121.5s54.407-121.47 121.5-121.47z" transform="matrix(.40461 0 0 .40461 447.29 -55.006)"/>
    <path id="path65186" style="fill:#585757" d="m554.43 44.064c-34.687 0-62.816 28.116-62.816 62.803s28.129 62.816 62.816 62.816 62.803-28.129 62.803-62.816-28.116-62.803-62.803-62.803zm-0.4723 11.335c28.167 0 50.995 22.828 50.995 50.995s-22.828 51.009-50.995 51.009-51.009-22.841-51.009-51.009c0-28.167 22.841-50.995 51.009-50.995z"/>
    <path id="path65188" style="fill:url(#radialGradient4952)" d="m554.43 44.064c-34.687 0-62.816 28.116-62.816 62.803s28.129 62.816 62.816 62.816 62.803-28.129 62.803-62.816-28.116-62.803-62.803-62.803zm-0.4723 11.335c28.167 0 50.995 22.828 50.995 50.995s-22.828 51.009-50.995 51.009-51.009-22.841-51.009-51.009c0-28.167 22.841-50.995 51.009-50.995z"/>
    <path id="path65190" style="fill:#333333" d="m554.72 39.513c-36.833 0-66.701 29.855-66.701 66.687 0 36.833 29.868 66.701 66.701 66.701s66.687-29.868 66.687-66.701-29.855-66.687-66.687-66.687zm-0.50151 12.036c29.909 0 54.149 24.24 54.149 54.149s-24.24 54.163-54.149 54.163-54.163-24.254-54.163-54.163 24.254-54.149 54.163-54.149z"/>
    <path id="path65192" style="filter:url(#filter63947);stroke:#000000;stroke-width:2.743;fill:none" d="m478.82 641.95c0 65.892-55.552 119.31-124.08 119.31-68.527 0-124.08-53.416-124.08-119.31 0-65.892 55.552-119.31 124.08-119.31 68.527 0 124.08 53.416 124.08 119.31z" transform="matrix(.40461 0 0 .43159 410.6 -170.16)"/>
    <path id="path65194" style="filter:url(#filter63947);stroke:#000000;stroke-width:2.743;fill:none" d="m478.82 641.95c0 65.892-55.552 119.31-124.08 119.31-68.527 0-124.08-53.416-124.08-119.31 0-65.892 55.552-119.31 124.08-119.31 68.527 0 124.08 53.416 124.08 119.31z" transform="matrix(.40461 0 0 .43159 410.6 -170.16)"/>
    <path id="path65196" style="filter:url(#filter63947);stroke:#000000;stroke-width:2.743;fill:none" d="m478.82 641.95c0 65.892-55.552 119.31-124.08 119.31-68.527 0-124.08-53.416-124.08-119.31 0-65.892 55.552-119.31 124.08-119.31 68.527 0 124.08 53.416 124.08 119.31z" transform="matrix(.40461 0 0 .43159 410.6 -170.16)"/>
    <path id="path65198" style="fill:url(#linearGradient4945)" d="m554.72 39.513c-36.833 0-66.701 29.855-66.701 66.687 0 36.833 29.868 66.701 66.701 66.701s66.687-29.868 66.687-66.701-29.855-66.687-66.687-66.687zm-0.50151 12.036c29.909 0 54.149 24.24 54.149 54.149s-24.24 54.163-54.149 54.163-54.163-24.254-54.163-54.163 24.254-54.149 54.163-54.149z"/>
  </g>
  <g id="g5554">
    <path id="path65245" style="fill:#000055" d="m621.72 468.78c0 33.431-27.101 60.532-60.532 60.532s-60.532-27.101-60.532-60.532 27.101-60.532 60.532-60.532 60.532 27.101 60.532 60.532z"/>
    <path id="path65253" style="fill:url(#linearGradient5212)" d="m561.37 424.06c-14.278 0-26.834 8.1717-34.047 20.506 6.1944 15.951 20.538 27.123 37.241 27.123 14.278 0 26.824-8.1609 34.037-20.494-6.193-15.955-20.525-27.134-37.23-27.134z"/>
    <path id="path65255" style="fill:url(#linearGradient5212)" d="m561.37 424.06c-14.278 0-26.834 8.1717-34.047 20.506 6.1944 15.951 20.538 27.123 37.241 27.123 14.278 0 26.824-8.1609 34.037-20.494-6.193-15.955-20.525-27.134-37.23-27.134z"/>
    <path id="path65259" style="fill-opacity:0" d="m626.23 500.96c0 33.431-27.101 60.532-60.532 60.532s-60.532-27.101-60.532-60.532 27.101-60.532 60.532-60.532 60.532 27.101 60.532 60.532z"/>
    <path id="path65261" style="fill:url(#radialGradient5204)" d="m621.46 476.5c0 33.431-27.101 60.532-60.532 60.532s-60.532-27.101-60.532-60.532 27.101-60.532 60.532-60.532 60.532 27.101 60.532 60.532z"/>
    <path id="path65263" style="fill:url(#radialGradient5201)" d="m621.46 476.5c0 33.431-27.101 60.532-60.532 60.532s-60.532-27.101-60.532-60.532 27.101-60.532 60.532-60.532 60.532 27.101 60.532 60.532z"/>
    <path id="path65267" style="filter:url(#filter63881);fill:#000000" d="m263.66 249.35c-82.624 0-149.62 66.97-149.62 149.59 0 82.624 67.001 149.62 149.62 149.62 82.624 0 149.59-67.001 149.59-149.62 0-82.624-66.97-149.59-149.59-149.59zm-1.125 27c67.093 0 121.47 54.376 121.47 121.47 0 67.093-54.376 121.5-121.47 121.5-67.093 0-121.5-54.407-121.5-121.5s54.407-121.47 121.5-121.47z" transform="matrix(.40461 0 0 .40461 451.94 310.58)"/>
    <path id="path65269" style="fill:#585757" d="m559.08 409.65c-34.687 0-62.816 28.116-62.816 62.803s28.129 62.816 62.816 62.816 62.803-28.129 62.803-62.816-28.116-62.803-62.803-62.803zm-0.4723 11.335c28.167 0 50.995 22.828 50.995 50.995s-22.828 51.009-50.995 51.009-51.009-22.841-51.009-51.009c0-28.167 22.841-50.995 51.009-50.995z"/>
    <path id="path65271" style="fill:url(#radialGradient4921)" d="m559.08 409.65c-34.687 0-62.816 28.116-62.816 62.803s28.129 62.816 62.816 62.816 62.803-28.129 62.803-62.816-28.116-62.803-62.803-62.803zm-0.4723 11.335c28.167 0 50.995 22.828 50.995 50.995s-22.828 51.009-50.995 51.009-51.009-22.841-51.009-51.009c0-28.167 22.841-50.995 51.009-50.995z"/>
    <path id="path65273" style="fill:#333333" d="m559.37 405.09c-36.833 0-66.701 29.855-66.701 66.687 0 36.833 29.868 66.701 66.701 66.701s66.687-29.868 66.687-66.701-29.855-66.687-66.687-66.687zm-0.50151 12.036c29.909 0 54.149 24.24 54.149 54.149s-24.24 54.163-54.149 54.163-54.163-24.254-54.163-54.163 24.254-54.149 54.163-54.149z"/>
    <path id="path65275" style="filter:url(#filter63947);stroke:#000000;stroke-width:2.743;fill:none" d="m478.82 641.95c0 65.892-55.552 119.31-124.08 119.31-68.527 0-124.08-53.416-124.08-119.31 0-65.892 55.552-119.31 124.08-119.31 68.527 0 124.08 53.416 124.08 119.31z" transform="matrix(.40461 0 0 .43159 415.25 195.43)"/>
    <path id="path65277" style="filter:url(#filter63947);stroke:#000000;stroke-width:2.743;fill:none" d="m478.82 641.95c0 65.892-55.552 119.31-124.08 119.31-68.527 0-124.08-53.416-124.08-119.31 0-65.892 55.552-119.31 124.08-119.31 68.527 0 124.08 53.416 124.08 119.31z" transform="matrix(.40461 0 0 .43159 415.25 195.43)"/>
    <path id="path65279" style="filter:url(#filter63947);stroke:#000000;stroke-width:2.743;fill:none" d="m478.82 641.95c0 65.892-55.552 119.31-124.08 119.31-68.527 0-124.08-53.416-124.08-119.31 0-65.892 55.552-119.31 124.08-119.31 68.527 0 124.08 53.416 124.08 119.31z" transform="matrix(.40461 0 0 .43159 415.25 195.43)"/>
    <path id="path65281" style="fill:url(#linearGradient4914)" d="m559.37 405.09c-36.833 0-66.701 29.855-66.701 66.687 0 36.833 29.868 66.701 66.701 66.701s66.687-29.868 66.687-66.701-29.855-66.687-66.687-66.687zm-0.50151 12.036c29.909 0 54.149 24.24 54.149 54.149s-24.24 54.163-54.149 54.163-54.163-24.254-54.163-54.163 24.254-54.149 54.163-54.149z"/>
  </g>
  <g id="g5424">
    <path id="path65328" style="fill:#8800aa" d="m145.84 291.09c0 33.431-27.101 60.532-60.532 60.532s-60.532-27.101-60.532-60.532 27.101-60.532 60.532-60.532 60.532 27.101 60.532 60.532z"/>
    <path id="path65336" style="fill:url(#linearGradient5233)" d="m84.912 239.37c-14.278 0-26.834 8.1717-34.047 20.506 6.1944 15.951 20.538 27.123 37.241 27.123 14.278 0 26.824-8.1609 34.037-20.494-6.193-15.955-20.525-27.134-37.23-27.134z"/>
    <path id="path65338" style="fill:url(#linearGradient5233)" d="m84.912 239.37c-14.278 0-26.834 8.1717-34.047 20.506 6.1944 15.951 20.538 27.123 37.241 27.123 14.278 0 26.824-8.1609 34.037-20.494-6.193-15.955-20.525-27.134-37.23-27.134z"/>
    <path id="path65342" style="fill-opacity:0" d="m149.77 316.27c0 33.431-27.101 60.532-60.532 60.532s-60.532-27.101-60.532-60.532 27.101-60.532 60.532-60.532 60.532 27.101 60.532 60.532z"/>
    <path id="path65344" style="fill:url(#radialGradient5225)" d="m144.99 291.81c0 33.431-27.101 60.532-60.532 60.532s-60.532-27.101-60.532-60.532 27.101-60.532 60.532-60.532 60.532 27.101 60.532 60.532z"/>
    <path id="path65346" style="fill:url(#radialGradient5222)" d="m144.99 291.81c0 33.431-27.101 60.532-60.532 60.532s-60.532-27.101-60.532-60.532 27.101-60.532 60.532-60.532 60.532 27.101 60.532 60.532z"/>
    <path id="path65350" style="filter:url(#filter63881);fill:#000000" d="m263.66 249.35c-82.624 0-149.62 66.97-149.62 149.59 0 82.624 67.001 149.62 149.62 149.62 82.624 0 149.59-67.001 149.59-149.62 0-82.624-66.97-149.59-149.59-149.59zm-1.125 27c67.093 0 121.47 54.376 121.47 121.47 0 67.093-54.376 121.5-121.47 121.5-67.093 0-121.5-54.407-121.5-121.5s54.407-121.47 121.5-121.47z" transform="matrix(.40461 0 0 .40461 -24.521 125.89)"/>
    <path id="path65352" style="fill:#585757" d="m82.615 224.96c-34.687 0-62.816 28.116-62.816 62.803s28.129 62.816 62.816 62.816 62.803-28.129 62.803-62.816-28.116-62.803-62.803-62.803zm-0.4723 11.335c28.167 0 50.995 22.828 50.995 50.995s-22.828 51.009-50.995 51.009-51.009-22.841-51.009-51.009c0-28.167 22.841-50.995 51.009-50.995z"/>
    <path id="path65354" style="fill:url(#radialGradient4890)" d="m82.615 224.96c-34.687 0-62.816 28.116-62.816 62.803s28.129 62.816 62.816 62.816 62.803-28.129 62.803-62.816-28.116-62.803-62.803-62.803zm-0.4723 11.335c28.167 0 50.995 22.828 50.995 50.995s-22.828 51.009-50.995 51.009-51.009-22.841-51.009-51.009c0-28.167 22.841-50.995 51.009-50.995z"/>
    <path id="path65356" style="fill:#333333" d="m82.905 220.4c-36.833 0-66.701 29.855-66.701 66.687 0 36.833 29.868 66.701 66.701 66.701s66.687-29.868 66.687-66.701-29.855-66.687-66.687-66.687zm-0.50151 12.036c29.909 0 54.149 24.24 54.149 54.149s-24.24 54.163-54.149 54.163-54.163-24.254-54.163-54.163 24.254-54.149 54.163-54.149z"/>
    <path id="path65358" style="filter:url(#filter63947);stroke:#000000;stroke-width:2.743;fill:none" d="m478.82 641.95c0 65.892-55.552 119.31-124.08 119.31-68.527 0-124.08-53.416-124.08-119.31 0-65.892 55.552-119.31 124.08-119.31 68.527 0 124.08 53.416 124.08 119.31z" transform="matrix(.40461 0 0 .43159 -61.209 10.736)"/>
    <path id="path65360" style="filter:url(#filter63947);stroke:#000000;stroke-width:2.743;fill:none" d="m478.82 641.95c0 65.892-55.552 119.31-124.08 119.31-68.527 0-124.08-53.416-124.08-119.31 0-65.892 55.552-119.31 124.08-119.31 68.527 0 124.08 53.416 124.08 119.31z" transform="matrix(.40461 0 0 .43159 -61.209 10.736)"/>
    <path id="path65362" style="filter:url(#filter63947);stroke:#000000;stroke-width:2.743;fill:none" d="m478.82 641.95c0 65.892-55.552 119.31-124.08 119.31-68.527 0-124.08-53.416-124.08-119.31 0-65.892 55.552-119.31 124.08-119.31 68.527 0 124.08 53.416 124.08 119.31z" transform="matrix(.40461 0 0 .43159 -61.209 10.736)"/>
    <path id="path65364" style="fill:url(#linearGradient4883)" d="m82.905 220.4c-36.833 0-66.701 29.855-66.701 66.687 0 36.833 29.868 66.701 66.701 66.701s66.687-29.868 66.687-66.701-29.855-66.687-66.687-66.687zm-0.50151 12.036c29.909 0 54.149 24.24 54.149 54.149s-24.24 54.163-54.149 54.163-54.163-24.254-54.163-54.163 24.254-54.149 54.163-54.149z"/>
  </g>
  <g id="g5489">
    <path id="path65411" style="fill:#d400aa" d="m771.53 287.64c0 33.431-27.101 60.532-60.532 60.532s-60.532-27.101-60.532-60.532 27.101-60.532 60.532-60.532 60.532 27.101 60.532 60.532z"/>
    <path id="path65419" style="fill:url(#linearGradient5254)" d="m713.33 239.55c-14.278 0-26.834 8.1717-34.047 20.506 6.1944 15.951 20.538 27.123 37.241 27.123 14.278 0 26.824-8.1609 34.037-20.494-6.193-15.955-20.525-27.134-37.23-27.134z"/>
    <path id="path65421" style="fill:url(#linearGradient5254)" d="m713.33 239.55c-14.278 0-26.834 8.1717-34.047 20.506 6.1944 15.951 20.538 27.123 37.241 27.123 14.278 0 26.824-8.1609 34.037-20.494-6.193-15.955-20.525-27.134-37.23-27.134z"/>
    <path id="path65425" style="fill-opacity:0" d="m778.19 316.46c0 33.431-27.101 60.532-60.532 60.532s-60.532-27.101-60.532-60.532 27.101-60.532 60.532-60.532 60.532 27.101 60.532 60.532z"/>
    <path id="path65427" style="fill:url(#radialGradient5246)" d="m773.41 292c0 33.431-27.101 60.532-60.532 60.532s-60.532-27.101-60.532-60.532 27.101-60.532 60.532-60.532 60.532 27.101 60.532 60.532z"/>
    <path id="path65429" style="fill:url(#radialGradient5243)" d="m773.41 292c0 33.431-27.101 60.532-60.532 60.532s-60.532-27.101-60.532-60.532 27.101-60.532 60.532-60.532 60.532 27.101 60.532 60.532z"/>
    <path id="path65433" style="filter:url(#filter63881);fill:#000000" d="m263.66 249.35c-82.624 0-149.62 66.97-149.62 149.59 0 82.624 67.001 149.62 149.62 149.62 82.624 0 149.59-67.001 149.59-149.62 0-82.624-66.97-149.59-149.59-149.59zm-1.125 27c67.093 0 121.47 54.376 121.47 121.47 0 67.093-54.376 121.5-121.47 121.5-67.093 0-121.5-54.407-121.5-121.5s54.407-121.47 121.5-121.47z" transform="matrix(.40461 0 0 .40461 603.9 126.07)"/>
    <path id="path65435" style="fill:#585757" d="m711.03 225.14c-34.687 0-62.816 28.116-62.816 62.803s28.129 62.816 62.816 62.816 62.803-28.129 62.803-62.816-28.116-62.803-62.803-62.803zm-0.4723 11.335c28.167 0 50.995 22.828 50.995 50.995s-22.828 51.009-50.995 51.009-51.009-22.841-51.009-51.009c0-28.167 22.841-50.995 51.009-50.995z"/>
    <path id="path65437" style="fill:url(#radialGradient4859)" d="m711.03 225.14c-34.687 0-62.816 28.116-62.816 62.803s28.129 62.816 62.816 62.816 62.803-28.129 62.803-62.816-28.116-62.803-62.803-62.803zm-0.4723 11.335c28.167 0 50.995 22.828 50.995 50.995s-22.828 51.009-50.995 51.009-51.009-22.841-51.009-51.009c0-28.167 22.841-50.995 51.009-50.995z"/>
    <path id="path65439" style="fill:#333333" d="m711.32 220.59c-36.833 0-66.701 29.855-66.701 66.687 0 36.833 29.868 66.701 66.701 66.701s66.687-29.868 66.687-66.701-29.855-66.687-66.687-66.687zm-0.50151 12.036c29.909 0 54.149 24.24 54.149 54.149s-24.24 54.163-54.149 54.163-54.163-24.254-54.163-54.163 24.254-54.149 54.163-54.149z"/>
    <path id="path65441" style="filter:url(#filter63947);stroke:#000000;stroke-width:2.743;fill:none" d="m478.82 641.95c0 65.892-55.552 119.31-124.08 119.31-68.527 0-124.08-53.416-124.08-119.31 0-65.892 55.552-119.31 124.08-119.31 68.527 0 124.08 53.416 124.08 119.31z" transform="matrix(.40461 0 0 .43159 567.21 10.919)"/>
    <path id="path65443" style="filter:url(#filter63947);stroke:#000000;stroke-width:2.743;fill:none" d="m478.82 641.95c0 65.892-55.552 119.31-124.08 119.31-68.527 0-124.08-53.416-124.08-119.31 0-65.892 55.552-119.31 124.08-119.31 68.527 0 124.08 53.416 124.08 119.31z" transform="matrix(.40461 0 0 .43159 567.21 10.919)"/>
    <path id="path65445" style="filter:url(#filter63947);stroke:#000000;stroke-width:2.743;fill:none" d="m478.82 641.95c0 65.892-55.552 119.31-124.08 119.31-68.527 0-124.08-53.416-124.08-119.31 0-65.892 55.552-119.31 124.08-119.31 68.527 0 124.08 53.416 124.08 119.31z" transform="matrix(.40461 0 0 .43159 567.21 10.919)"/>
    <path id="path65447" style="fill:url(#linearGradient4852)" d="m711.32 220.59c-36.833 0-66.701 29.855-66.701 66.687 0 36.833 29.868 66.701 66.701 66.701s66.687-29.868 66.687-66.701-29.855-66.687-66.687-66.687zm-0.50151 12.036c29.909 0 54.149 24.24 54.149 54.149s-24.24 54.163-54.149 54.163-54.163-24.254-54.163-54.163 24.254-54.149 54.163-54.149z"/>
  </g>
  <g id="g5376">
    <path id="path65494" style="fill:#800033" d="m463.8 102.58c0 33.431-27.101 60.532-60.532 60.532s-60.532-27.101-60.532-60.532 27.101-60.532 60.532-60.532 60.532 27.101 60.532 60.532z"/>
    <path id="path64815" style="fill:url(#linearGradient5275)" d="m402.88 57.224c-14.278 0-26.834 8.1717-34.047 20.506 6.1944 15.951 20.538 27.123 37.241 27.123 14.278 0 26.824-8.1609 34.037-20.494-6.19-15.956-20.53-27.135-37.23-27.135z"/>
    <path id="path64817" style="fill:url(#linearGradient5275)" d="m402.88 57.224c-14.278 0-26.834 8.1717-34.047 20.506 6.1944 15.951 20.538 27.123 37.241 27.123 14.278 0 26.824-8.1609 34.037-20.494-6.19-15.956-20.53-27.135-37.23-27.135z"/>
    <path id="path64821" style="fill-opacity:0" d="m467.73 134.13c0 33.431-27.101 60.532-60.532 60.532s-60.532-27.101-60.532-60.532 27.101-60.532 60.532-60.532 60.532 27.101 60.532 60.532z"/>
    <path id="path64823" style="fill:url(#radialGradient5267)" d="m462.96 109.67c0 33.431-27.101 60.532-60.532 60.532s-60.532-27.101-60.532-60.532 27.101-60.532 60.532-60.532 60.532 27.101 60.532 60.532z"/>
    <path id="path64825" style="fill:url(#radialGradient5264)" d="m462.96 109.67c0 33.431-27.101 60.532-60.532 60.532s-60.532-27.101-60.532-60.532 27.101-60.532 60.532-60.532 60.532 27.101 60.532 60.532z"/>
    <path id="path64829" style="filter:url(#filter63881);fill:#000000" d="m263.66 249.35c-82.624 0-149.62 66.97-149.62 149.59 0 82.624 67.001 149.62 149.62 149.62 82.624 0 149.59-67.001 149.59-149.62 0-82.624-66.97-149.59-149.59-149.59zm-1.125 27c67.093 0 121.47 54.376 121.47 121.47 0 67.093-54.376 121.5-121.47 121.5-67.093 0-121.5-54.407-121.5-121.5s54.407-121.47 121.5-121.47z" transform="matrix(.40461 0 0 .40461 293.45 -56.258)"/>
    <path id="path64831" style="fill:#585757" d="m400.58 42.812c-34.687 0-62.816 28.116-62.816 62.803s28.129 62.816 62.816 62.816 62.803-28.129 62.803-62.816-28.116-62.803-62.803-62.803zm-0.4723 11.335c28.167 0 50.995 22.828 50.995 50.995s-22.828 51.009-50.995 51.009-51.009-22.841-51.009-51.009c0-28.167 22.841-50.995 51.009-50.995z"/>
    <path id="path64833" style="fill:url(#radialGradient4828)" d="m400.58 42.812c-34.687 0-62.816 28.116-62.816 62.803s28.129 62.816 62.816 62.816 62.803-28.129 62.803-62.816-28.116-62.803-62.803-62.803zm-0.4723 11.335c28.167 0 50.995 22.828 50.995 50.995s-22.828 51.009-50.995 51.009-51.009-22.841-51.009-51.009c0-28.167 22.841-50.995 51.009-50.995z"/>
    <path id="path64835" style="fill:#333333" d="m400.87 38.261c-36.833 0-66.701 29.855-66.701 66.687 0 36.833 29.868 66.701 66.701 66.701s66.687-29.868 66.687-66.701-29.855-66.687-66.687-66.687zm-0.50151 12.036c29.909 0 54.149 24.24 54.149 54.149s-24.24 54.163-54.149 54.163-54.163-24.254-54.163-54.163 24.254-54.149 54.163-54.149z"/>
    <path id="path64837" style="filter:url(#filter63947);stroke:#000000;stroke-width:2.743;fill:none" d="m478.82 641.95c0 65.892-55.552 119.31-124.08 119.31-68.527 0-124.08-53.416-124.08-119.31 0-65.892 55.552-119.31 124.08-119.31 68.527 0 124.08 53.416 124.08 119.31z" transform="matrix(.40461 0 0 .43159 256.76 -171.41)"/>
    <path id="path64839" style="filter:url(#filter63947);stroke:#000000;stroke-width:2.743;fill:none" d="m478.82 641.95c0 65.892-55.552 119.31-124.08 119.31-68.527 0-124.08-53.416-124.08-119.31 0-65.892 55.552-119.31 124.08-119.31 68.527 0 124.08 53.416 124.08 119.31z" transform="matrix(.40461 0 0 .43159 256.76 -171.41)"/>
    <path id="path64841" style="filter:url(#filter63947);stroke:#000000;stroke-width:2.743;fill:none" d="m478.82 641.95c0 65.892-55.552 119.31-124.08 119.31-68.527 0-124.08-53.416-124.08-119.31 0-65.892 55.552-119.31 124.08-119.31 68.527 0 124.08 53.416 124.08 119.31z" transform="matrix(.40461 0 0 .43159 256.76 -171.41)"/>
    <path id="path64843" style="fill:url(#linearGradient4821)" d="m400.87 38.261c-36.833 0-66.701 29.855-66.701 66.687 0 36.833 29.868 66.701 66.701 66.701s66.687-29.868 66.687-66.701-29.855-66.687-66.687-66.687zm-0.50151 12.036c29.909 0 54.149 24.24 54.149 54.149s-24.24 54.163-54.149 54.163-54.163-24.254-54.163-54.163 24.254-54.149 54.163-54.149z"/>
  </g>
  <g id="g5505">
    <path id="path65113" style="fill:#e580ff" d="m150.94 469.82c0 33.431-27.101 60.532-60.532 60.532s-60.532-27.101-60.532-60.532 27.101-60.532 60.532-60.532 60.532 27.101 60.532 60.532z"/>
    <path id="path65543" style="fill:url(#linearGradient5296)" d="m89.444 424.25c-14.278 0-26.834 8.1717-34.047 20.506 6.1944 15.951 20.538 27.123 37.241 27.123 14.278 0 26.824-8.1609 34.037-20.494-6.193-15.955-20.525-27.134-37.23-27.134z"/>
    <path id="path65545" style="fill:url(#linearGradient5296)" d="m89.444 424.25c-14.278 0-26.834 8.1717-34.047 20.506 6.1944 15.951 20.538 27.123 37.241 27.123 14.278 0 26.824-8.1609 34.037-20.494-6.193-15.955-20.525-27.134-37.23-27.134z"/>
    <path id="path65549" style="fill-opacity:0" d="m154.3 501.16c0 33.431-27.101 60.532-60.532 60.532s-60.532-27.101-60.532-60.532 27.101-60.532 60.532-60.532 60.532 27.101 60.532 60.532z"/>
    <path id="path65551" style="fill:url(#radialGradient5288)" d="m149.53 476.7c0 33.431-27.101 60.532-60.532 60.532s-60.532-27.101-60.532-60.532 27.101-60.532 60.532-60.532 60.532 27.101 60.532 60.532z"/>
    <path id="path65553" style="fill:url(#radialGradient5285)" d="m149.53 476.7c0 33.431-27.101 60.532-60.532 60.532s-60.532-27.101-60.532-60.532 27.101-60.532 60.532-60.532 60.532 27.101 60.532 60.532z"/>
    <path id="path65557" style="filter:url(#filter63881);fill:#000000" d="m263.66 249.35c-82.624 0-149.62 66.97-149.62 149.59 0 82.624 67.001 149.62 149.62 149.62 82.624 0 149.59-67.001 149.59-149.62 0-82.624-66.97-149.59-149.59-149.59zm-1.125 27c67.093 0 121.47 54.376 121.47 121.47 0 67.093-54.376 121.5-121.47 121.5-67.093 0-121.5-54.407-121.5-121.5s54.407-121.47 121.5-121.47z" transform="matrix(.40461 0 0 .40461 -19.989 310.77)"/>
    <path id="path65559" style="fill:#585757" d="m87.147 409.84c-34.687 0-62.816 28.116-62.816 62.803s28.129 62.816 62.816 62.816 62.803-28.129 62.803-62.816-28.116-62.803-62.803-62.803zm-0.4723 11.335c28.167 0 50.995 22.828 50.995 50.995s-22.828 51.009-50.995 51.009-51.009-22.841-51.009-51.009c0-28.167 22.841-50.995 51.009-50.995z"/>
    <path id="path65561" style="fill:url(#radialGradient4797)" d="m87.147 409.84c-34.687 0-62.816 28.116-62.816 62.803s28.129 62.816 62.816 62.816 62.803-28.129 62.803-62.816-28.116-62.803-62.803-62.803zm-0.4723 11.335c28.167 0 50.995 22.828 50.995 50.995s-22.828 51.009-50.995 51.009-51.009-22.841-51.009-51.009c0-28.167 22.841-50.995 51.009-50.995z"/>
    <path id="path65563" style="fill:#333333" d="m87.436 405.29c-36.833 0-66.701 29.855-66.701 66.687 0 36.833 29.868 66.701 66.701 66.701s66.687-29.868 66.687-66.701-29.855-66.687-66.687-66.687zm-0.50151 12.036c29.909 0 54.149 24.24 54.149 54.149s-24.24 54.163-54.149 54.163-54.163-24.254-54.163-54.163 24.254-54.149 54.163-54.149z"/>
    <path id="path65565" style="filter:url(#filter63947);stroke:#000000;stroke-width:2.743;fill:none" d="m478.82 641.95c0 65.892-55.552 119.31-124.08 119.31-68.527 0-124.08-53.416-124.08-119.31 0-65.892 55.552-119.31 124.08-119.31 68.527 0 124.08 53.416 124.08 119.31z" transform="matrix(.40461 0 0 .43159 -56.677 195.62)"/>
    <path id="path65567" style="filter:url(#filter63947);stroke:#000000;stroke-width:2.743;fill:none" d="m478.82 641.95c0 65.892-55.552 119.31-124.08 119.31-68.527 0-124.08-53.416-124.08-119.31 0-65.892 55.552-119.31 124.08-119.31 68.527 0 124.08 53.416 124.08 119.31z" transform="matrix(.40461 0 0 .43159 -56.677 195.62)"/>
    <path id="path65569" style="filter:url(#filter63947);stroke:#000000;stroke-width:2.743;fill:none" d="m478.82 641.95c0 65.892-55.552 119.31-124.08 119.31-68.527 0-124.08-53.416-124.08-119.31 0-65.892 55.552-119.31 124.08-119.31 68.527 0 124.08 53.416 124.08 119.31z" transform="matrix(.40461 0 0 .43159 -56.677 195.62)"/>
    <path id="path65571" style="fill:url(#linearGradient4790)" d="m87.436 405.29c-36.833 0-66.701 29.855-66.701 66.687 0 36.833 29.868 66.701 66.701 66.701s66.687-29.868 66.687-66.701-29.855-66.687-66.687-66.687zm-0.50151 12.036c29.909 0 54.149 24.24 54.149 54.149s-24.24 54.163-54.149 54.163-54.163-24.254-54.163-54.163 24.254-54.149 54.163-54.149z"/>
  </g>
  <g id="g5360">
    <path id="path65031" style="fill:#ff6600" d="m303.15 103.15c0 33.431-27.101 60.532-60.532 60.532s-60.532-27.101-60.532-60.532 27.101-60.532 60.532-60.532 60.532 27.101 60.532 60.532z"/>
    <path id="path65624" style="fill:url(#linearGradient5317)" d="m243.47 58.494c-14.278 0-26.834 8.1717-34.047 20.506 6.1944 15.951 20.538 27.123 37.241 27.123 14.278 0 26.824-8.1609 34.037-20.494-6.193-15.955-20.525-27.134-37.23-27.134z"/>
    <path id="path65626" style="fill:url(#linearGradient5317)" d="m243.47 58.494c-14.278 0-26.834 8.1717-34.047 20.506 6.1944 15.951 20.538 27.123 37.241 27.123 14.278 0 26.824-8.1609 34.037-20.494-6.193-15.955-20.525-27.134-37.23-27.134z"/>
    <path id="path65630" style="fill-opacity:0" d="m308.32 135.4c0 33.431-27.101 60.532-60.532 60.532s-60.532-27.101-60.532-60.532 27.101-60.532 60.532-60.532 60.532 27.101 60.532 60.532z"/>
    <path id="path65632" style="fill:url(#radialGradient5309)" d="m303.55 110.94c0 33.431-27.101 60.532-60.532 60.532s-60.532-27.101-60.532-60.532 27.101-60.532 60.532-60.532 60.532 27.101 60.532 60.532z"/>
    <path id="path65634" style="fill:url(#radialGradient5306)" d="m303.55 110.94c0 33.431-27.101 60.532-60.532 60.532s-60.532-27.101-60.532-60.532 27.101-60.532 60.532-60.532 60.532 27.101 60.532 60.532z"/>
    <path id="path65638" style="filter:url(#filter63881);fill:#000000" d="m263.66 249.35c-82.624 0-149.62 66.97-149.62 149.59 0 82.624 67.001 149.62 149.62 149.62 82.624 0 149.59-67.001 149.59-149.62 0-82.624-66.97-149.59-149.59-149.59zm-1.125 27c67.093 0 121.47 54.376 121.47 121.47 0 67.093-54.376 121.5-121.47 121.5-67.093 0-121.5-54.407-121.5-121.5s54.407-121.47 121.5-121.47z" transform="matrix(.40461 0 0 .40461 134.04 -54.988)"/>
    <path id="path65640" style="fill:#585757" d="m241.17 44.082c-34.687 0-62.816 28.116-62.816 62.803s28.129 62.816 62.816 62.816 62.803-28.129 62.803-62.816-28.116-62.803-62.803-62.803zm-0.4723 11.335c28.167 0 50.995 22.828 50.995 50.995s-22.828 51.009-50.995 51.009-51.009-22.841-51.009-51.009c0-28.167 22.841-50.995 51.009-50.995z"/>
    <path id="path65642" style="fill:url(#radialGradient4766)" d="m241.17 44.082c-34.687 0-62.816 28.116-62.816 62.803s28.129 62.816 62.816 62.816 62.803-28.129 62.803-62.816-28.116-62.803-62.803-62.803zm-0.4723 11.335c28.167 0 50.995 22.828 50.995 50.995s-22.828 51.009-50.995 51.009-51.009-22.841-51.009-51.009c0-28.167 22.841-50.995 51.009-50.995z"/>
    <path id="path65644" style="fill:#333333" d="m241.46 39.531c-36.833 0-66.701 29.855-66.701 66.687 0 36.833 29.868 66.701 66.701 66.701s66.687-29.868 66.687-66.701-29.855-66.687-66.687-66.687zm-0.50151 12.036c29.909 0 54.149 24.24 54.149 54.149s-24.24 54.163-54.149 54.163-54.163-24.254-54.163-54.163 24.254-54.149 54.163-54.149z"/>
    <path id="path65646" style="filter:url(#filter63947);stroke:#000000;stroke-width:2.743;fill:none" d="m478.82 641.95c0 65.892-55.552 119.31-124.08 119.31-68.527 0-124.08-53.416-124.08-119.31 0-65.892 55.552-119.31 124.08-119.31 68.527 0 124.08 53.416 124.08 119.31z" transform="matrix(.40461 0 0 .43159 97.348 -170.14)"/>
    <path id="path65648" style="filter:url(#filter63947);stroke:#000000;stroke-width:2.743;fill:none" d="m478.82 641.95c0 65.892-55.552 119.31-124.08 119.31-68.527 0-124.08-53.416-124.08-119.31 0-65.892 55.552-119.31 124.08-119.31 68.527 0 124.08 53.416 124.08 119.31z" transform="matrix(.40461 0 0 .43159 97.348 -170.14)"/>
    <path id="path65650" style="filter:url(#filter63947);stroke:#000000;stroke-width:2.743;fill:none" d="m478.82 641.95c0 65.892-55.552 119.31-124.08 119.31-68.527 0-124.08-53.416-124.08-119.31 0-65.892 55.552-119.31 124.08-119.31 68.527 0 124.08 53.416 124.08 119.31z" transform="matrix(.40461 0 0 .43159 97.348 -170.14)"/>
    <path id="path65652" style="fill:url(#linearGradient4759)" d="m241.46 39.531c-36.833 0-66.701 29.855-66.701 66.687 0 36.833 29.868 66.701 66.701 66.701s66.687-29.868 66.687-66.701-29.855-66.687-66.687-66.687zm-0.50151 12.036c29.909 0 54.149 24.24 54.149 54.149s-24.24 54.163-54.149 54.163-54.163-24.254-54.163-54.163 24.254-54.149 54.163-54.149z"/>
  </g>
  <g id="g5570">
    <path id="path65763" style="fill:#ffff00" d="m780.73 471.18c0 33.431-27.101 60.532-60.532 60.532s-60.532-27.101-60.532-60.532 27.101-60.532 60.532-60.532 60.532 27.101 60.532 60.532z"/>
    <path id="path65771" style="fill:url(#linearGradient5338)" d="m719.23 424.71c-14.278 0-26.834 8.1717-34.047 20.506 6.1944 15.951 20.538 27.123 37.241 27.123 14.278 0 26.824-8.1609 34.037-20.494-6.193-15.955-20.525-27.134-37.23-27.134z"/>
    <path id="path65773" style="fill:url(#linearGradient5338)" d="m719.23 424.71c-14.278 0-26.834 8.1717-34.047 20.506 6.1944 15.951 20.538 27.123 37.241 27.123 14.278 0 26.824-8.1609 34.037-20.494-6.193-15.955-20.525-27.134-37.23-27.134z"/>
    <path id="path65777" style="fill-opacity:0" d="m784.08 501.61c0 33.431-27.101 60.532-60.532 60.532s-60.532-27.101-60.532-60.532 27.101-60.532 60.532-60.532 60.532 27.101 60.532 60.532z"/>
    <path id="path65779" style="fill:url(#radialGradient5330)" d="m779.31 477.15c0 33.431-27.101 60.532-60.532 60.532s-60.532-27.101-60.532-60.532 27.101-60.532 60.532-60.532 60.532 27.101 60.532 60.532z"/>
    <path id="path65781" style="fill:url(#radialGradient5327)" d="m779.31 477.15c0 33.431-27.101 60.532-60.532 60.532s-60.532-27.101-60.532-60.532 27.101-60.532 60.532-60.532 60.532 27.101 60.532 60.532z"/>
    <path id="path65785" style="filter:url(#filter63881);fill:#000000" d="m263.66 249.35c-82.624 0-149.62 66.97-149.62 149.59 0 82.624 67.001 149.62 149.62 149.62 82.624 0 149.59-67.001 149.59-149.62 0-82.624-66.97-149.59-149.59-149.59zm-1.125 27c67.093 0 121.47 54.376 121.47 121.47 0 67.093-54.376 121.5-121.47 121.5-67.093 0-121.5-54.407-121.5-121.5s54.407-121.47 121.5-121.47z" transform="matrix(.40461 0 0 .40461 609.79 311.23)"/>
    <path id="path65787" style="fill:#585757" d="m716.93 410.3c-34.687 0-62.816 28.116-62.816 62.803s28.129 62.816 62.816 62.816 62.803-28.129 62.803-62.816-28.116-62.803-62.803-62.803zm-0.4723 11.335c28.167 0 50.995 22.828 50.995 50.995s-22.828 51.009-50.995 51.009-51.009-22.841-51.009-51.009c0-28.167 22.841-50.995 51.009-50.995z"/>
    <path id="path65789" style="fill:url(#radialGradient4735)" d="m716.93 410.3c-34.687 0-62.816 28.116-62.816 62.803s28.129 62.816 62.816 62.816 62.803-28.129 62.803-62.816-28.116-62.803-62.803-62.803zm-0.4723 11.335c28.167 0 50.995 22.828 50.995 50.995s-22.828 51.009-50.995 51.009-51.009-22.841-51.009-51.009c0-28.167 22.841-50.995 51.009-50.995z"/>
    <path id="path65791" style="fill:#333333" d="m717.22 405.75c-36.833 0-66.701 29.855-66.701 66.687 0 36.833 29.868 66.701 66.701 66.701s66.687-29.868 66.687-66.701-29.855-66.687-66.687-66.687zm-0.50151 12.036c29.909 0 54.149 24.24 54.149 54.149s-24.24 54.163-54.149 54.163-54.163-24.254-54.163-54.163 24.254-54.149 54.163-54.149z"/>
    <path id="path65793" style="filter:url(#filter63947);stroke:#000000;stroke-width:2.743;fill:none" d="m478.82 641.95c0 65.892-55.552 119.31-124.08 119.31-68.527 0-124.08-53.416-124.08-119.31 0-65.892 55.552-119.31 124.08-119.31 68.527 0 124.08 53.416 124.08 119.31z" transform="matrix(.40461 0 0 .43159 573.11 196.08)"/>
    <path id="path65795" style="filter:url(#filter63947);stroke:#000000;stroke-width:2.743;fill:none" d="m478.82 641.95c0 65.892-55.552 119.31-124.08 119.31-68.527 0-124.08-53.416-124.08-119.31 0-65.892 55.552-119.31 124.08-119.31 68.527 0 124.08 53.416 124.08 119.31z" transform="matrix(.40461 0 0 .43159 573.11 196.08)"/>
    <path id="path65797" style="filter:url(#filter63947);stroke:#000000;stroke-width:2.743;fill:none" d="m478.82 641.95c0 65.892-55.552 119.31-124.08 119.31-68.527 0-124.08-53.416-124.08-119.31 0-65.892 55.552-119.31 124.08-119.31 68.527 0 124.08 53.416 124.08 119.31z" transform="matrix(.40461 0 0 .43159 573.11 196.08)"/>
    <path id="path65799" style="fill:url(#linearGradient4728)" d="m717.22 405.75c-36.833 0-66.701 29.855-66.701 66.687 0 36.833 29.868 66.701 66.701 66.701s66.687-29.868 66.687-66.701-29.855-66.687-66.687-66.687zm-0.50151 12.036c29.909 0 54.149 24.24 54.149 54.149s-24.24 54.163-54.149 54.163-54.163-24.254-54.163-54.163 24.254-54.149 54.163-54.149z"/>
  </g>
  <metadata>
    <rdf:RDF>
      <cc:Work>
        <dc:format>image/svg+xml</dc:format>
        <dc:type rdf:resource="http://purl.org/dc/dcmitype/StillImage"/>
        <cc:license rdf:resource="http://creativecommons.org/licenses/publicdomain/"/>
        <dc:publisher>
          <cc:Agent rdf:about="http://openclipart.org/">
            <dc:title>Openclipart</dc:title>
          </cc:Agent>
        </dc:publisher>
        <dc:title>Round Buttons</dc:title>
        <dc:date>2010-07-29T22:59:40</dc:date>
        <dc:description>Glossy round buttons</dc:description>
        <dc:source>https://openclipart.org/detail/75349/round-buttons-by-inky2010</dc:source>
        <dc:creator>
          <cc:Agent>
            <dc:title>inky2010</dc:title>
          </cc:Agent>
        </dc:creator>
        <dc:subject>
          <rdf:Bag>
            <rdf:li>3D</rdf:li>
            <rdf:li>Button</rdf:li>
            <rdf:li>Buttons</rdf:li>
            <rdf:li>Gloss</rdf:li>
            <rdf:li>Glossy</rdf:li>
            <rdf:li>Inky2010</rdf:li>
            <rdf:li>Round</rdf:li>
          </rdf:Bag>
        </dc:subject>
      </cc:Work>
      <cc:License rdf:about="http://creativecommons.org/licenses/publicdomain/">
        <cc:permits rdf:resource="http://creativecommons.org/ns#Reproduction"/>
        <cc:permits rdf:resource="http://creativecommons.org/ns#Distribution"/>
        <cc:permits rdf:resource="http://creativecommons.org/ns#DerivativeWorks"/>
      </cc:License>
    </rdf:RDF>
  </metadata>
</svg>
